%TF.GenerationSoftware,KiCad,Pcbnew,8.0.8-8.0.8-0~ubuntu22.04.1*%
%TF.CreationDate,2025-02-06T23:59:06-05:00*%
%TF.ProjectId,F50FQLOJRETY30F,46353046-514c-44f4-9a52-455459333046,rev?*%
%TF.SameCoordinates,Original*%
%TF.FileFunction,Legend,Bot*%
%TF.FilePolarity,Positive*%
%FSLAX46Y46*%
G04 Gerber Fmt 4.6, Leading zero omitted, Abs format (unit mm)*
G04 Created by KiCad (PCBNEW 8.0.8-8.0.8-0~ubuntu22.04.1) date 2025-02-06 23:59:06*
%MOMM*%
%LPD*%
G01*
G04 APERTURE LIST*
%ADD10C,0.304800*%
%ADD11C,0.101600*%
%ADD12C,0.000000*%
%ADD13C,0.063400*%
%ADD14C,0.125000*%
G04 APERTURE END LIST*
D10*
X149501100Y-117303600D02*
X149501100Y-107303600D01*
X173001100Y-142303600D02*
G75*
G02*
X170001100Y-145303600I-3000000J0D01*
G01*
X127001100Y-145303600D02*
X170001100Y-145303600D01*
X173001100Y-142303600D02*
X173001100Y-122303600D01*
X170001100Y-119303600D02*
X151501100Y-119303600D01*
X151501100Y-119303600D02*
G75*
G02*
X149501100Y-117303600I0J2000000D01*
G01*
X147501100Y-107303600D02*
X147501100Y-117303600D01*
X145501100Y-119303600D02*
X127001100Y-119303600D01*
X124001100Y-122303600D02*
X124001100Y-142303600D01*
X124001100Y-122303600D02*
G75*
G02*
X127001100Y-119303600I3000000J0D01*
G01*
X127001100Y-145303600D02*
G75*
G02*
X124001100Y-142303600I0J3000000D01*
G01*
X170001100Y-119303600D02*
G75*
G02*
X173001100Y-122303600I0J-3000000D01*
G01*
X147501100Y-117303600D02*
G75*
G02*
X145501100Y-119303600I-2000000J0D01*
G01*
D11*
X153148273Y-96487310D02*
X153704654Y-96876777D01*
X153148273Y-97154967D02*
X154316673Y-97154967D01*
X154316673Y-97154967D02*
X154316673Y-96709862D01*
X154316673Y-96709862D02*
X154261035Y-96598586D01*
X154261035Y-96598586D02*
X154205397Y-96542948D01*
X154205397Y-96542948D02*
X154094121Y-96487310D01*
X154094121Y-96487310D02*
X153927207Y-96487310D01*
X153927207Y-96487310D02*
X153815931Y-96542948D01*
X153815931Y-96542948D02*
X153760292Y-96598586D01*
X153760292Y-96598586D02*
X153704654Y-96709862D01*
X153704654Y-96709862D02*
X153704654Y-97154967D01*
X153148273Y-95374548D02*
X153148273Y-96042205D01*
X153148273Y-95708377D02*
X154316673Y-95708377D01*
X154316673Y-95708377D02*
X154149759Y-95819653D01*
X154149759Y-95819653D02*
X154038483Y-95930929D01*
X154038483Y-95930929D02*
X153982845Y-96042205D01*
X143240449Y-97012689D02*
X143296088Y-96957051D01*
X143296088Y-96957051D02*
X143351726Y-96790137D01*
X143351726Y-96790137D02*
X143351726Y-96678861D01*
X143351726Y-96678861D02*
X143296088Y-96511946D01*
X143296088Y-96511946D02*
X143184811Y-96400670D01*
X143184811Y-96400670D02*
X143073535Y-96345032D01*
X143073535Y-96345032D02*
X142850983Y-96289394D01*
X142850983Y-96289394D02*
X142684068Y-96289394D01*
X142684068Y-96289394D02*
X142461516Y-96345032D01*
X142461516Y-96345032D02*
X142350240Y-96400670D01*
X142350240Y-96400670D02*
X142238964Y-96511946D01*
X142238964Y-96511946D02*
X142183326Y-96678861D01*
X142183326Y-96678861D02*
X142183326Y-96790137D01*
X142183326Y-96790137D02*
X142238964Y-96957051D01*
X142238964Y-96957051D02*
X142294602Y-97012689D01*
X143351726Y-98125451D02*
X143351726Y-97457794D01*
X143351726Y-97791622D02*
X142183326Y-97791622D01*
X142183326Y-97791622D02*
X142350240Y-97680346D01*
X142350240Y-97680346D02*
X142461516Y-97569070D01*
X142461516Y-97569070D02*
X142517154Y-97457794D01*
X149598586Y-90351726D02*
X150154967Y-90351726D01*
X150154967Y-90351726D02*
X150154967Y-89183326D01*
X149209119Y-89739707D02*
X148819652Y-89739707D01*
X148652738Y-90351726D02*
X149209119Y-90351726D01*
X149209119Y-90351726D02*
X149209119Y-89183326D01*
X149209119Y-89183326D02*
X148652738Y-89183326D01*
X148151995Y-90351726D02*
X148151995Y-89183326D01*
X148151995Y-89183326D02*
X147873805Y-89183326D01*
X147873805Y-89183326D02*
X147706890Y-89238964D01*
X147706890Y-89238964D02*
X147595614Y-89350240D01*
X147595614Y-89350240D02*
X147539976Y-89461516D01*
X147539976Y-89461516D02*
X147484338Y-89684068D01*
X147484338Y-89684068D02*
X147484338Y-89850983D01*
X147484338Y-89850983D02*
X147539976Y-90073535D01*
X147539976Y-90073535D02*
X147595614Y-90184811D01*
X147595614Y-90184811D02*
X147706890Y-90296088D01*
X147706890Y-90296088D02*
X147873805Y-90351726D01*
X147873805Y-90351726D02*
X148151995Y-90351726D01*
X146371576Y-90351726D02*
X147039233Y-90351726D01*
X146705405Y-90351726D02*
X146705405Y-89183326D01*
X146705405Y-89183326D02*
X146816681Y-89350240D01*
X146816681Y-89350240D02*
X146927957Y-89461516D01*
X146927957Y-89461516D02*
X147039233Y-89517154D01*
D12*
%TO.C,G\u002A\u002A\u002A*%
G36*
X173018045Y-69000000D02*
G01*
X173018045Y-76257143D01*
X147968171Y-76257143D01*
X122918296Y-76257143D01*
X122918296Y-69000000D01*
X122918296Y-66084465D01*
X123056260Y-66084465D01*
X123056537Y-66970022D01*
X123057975Y-67971858D01*
X123060526Y-69095489D01*
X123077444Y-75588722D01*
X123219423Y-75787766D01*
X123226034Y-75796830D01*
X123389041Y-75963190D01*
X123579169Y-76090147D01*
X123598901Y-76097410D01*
X123636702Y-76105942D01*
X123692770Y-76113954D01*
X123770863Y-76121464D01*
X123874744Y-76128487D01*
X124008172Y-76135038D01*
X124174907Y-76141132D01*
X124378711Y-76146786D01*
X124623343Y-76152015D01*
X124912564Y-76156834D01*
X125250135Y-76161260D01*
X125639815Y-76165306D01*
X126085365Y-76168990D01*
X126590546Y-76172327D01*
X127159118Y-76175332D01*
X127794842Y-76178020D01*
X128501477Y-76180408D01*
X129282785Y-76182512D01*
X130142526Y-76184345D01*
X131084460Y-76185925D01*
X132112347Y-76187266D01*
X133229948Y-76188384D01*
X134441024Y-76189296D01*
X135749335Y-76190015D01*
X137158641Y-76190559D01*
X138672703Y-76190941D01*
X140295280Y-76191179D01*
X142030135Y-76191288D01*
X143881026Y-76191282D01*
X145851715Y-76191179D01*
X147945962Y-76190992D01*
X149115176Y-76190855D01*
X151178284Y-76190517D01*
X153119483Y-76190060D01*
X154942281Y-76189470D01*
X156650188Y-76188736D01*
X158246712Y-76187844D01*
X159735363Y-76186781D01*
X161119649Y-76185535D01*
X162403080Y-76184093D01*
X163589164Y-76182443D01*
X164681410Y-76180570D01*
X165683327Y-76178464D01*
X166598424Y-76176110D01*
X167430210Y-76173497D01*
X168182194Y-76170611D01*
X168857885Y-76167440D01*
X169460792Y-76163971D01*
X169994423Y-76160191D01*
X170462289Y-76156088D01*
X170867897Y-76151648D01*
X171214756Y-76146859D01*
X171506376Y-76141708D01*
X171746266Y-76136183D01*
X171937934Y-76130270D01*
X172084889Y-76123958D01*
X172190641Y-76117232D01*
X172258698Y-76110081D01*
X172292569Y-76102492D01*
X172319645Y-76089447D01*
X172492149Y-75965656D01*
X172642695Y-75802602D01*
X172795238Y-75588722D01*
X172811540Y-69095489D01*
X172811803Y-68991848D01*
X172814672Y-67926258D01*
X172817238Y-66979955D01*
X172819061Y-66145583D01*
X172819700Y-65415785D01*
X172818715Y-64783203D01*
X172815666Y-64240481D01*
X172810113Y-63780259D01*
X172801616Y-63395182D01*
X172789735Y-63077893D01*
X172774029Y-62821033D01*
X172754058Y-62617245D01*
X172729383Y-62459173D01*
X172699563Y-62339458D01*
X172664158Y-62250744D01*
X172622728Y-62185674D01*
X172574833Y-62136889D01*
X172520032Y-62097033D01*
X172457886Y-62058748D01*
X172387955Y-62014678D01*
X172171648Y-61870176D01*
X147936478Y-61870176D01*
X123701309Y-61870176D01*
X123447918Y-62053731D01*
X123374981Y-62111557D01*
X123216863Y-62271518D01*
X123119068Y-62419771D01*
X123114008Y-62436499D01*
X123101656Y-62523861D01*
X123090901Y-62677840D01*
X123081695Y-62903954D01*
X123073988Y-63207720D01*
X123067733Y-63594656D01*
X123062881Y-64070281D01*
X123059384Y-64640112D01*
X123057193Y-65309667D01*
X123056260Y-66084465D01*
X122918296Y-66084465D01*
X122918296Y-61742858D01*
X147968171Y-61742858D01*
X173018045Y-61742858D01*
X173018045Y-65415785D01*
X173018045Y-69000000D01*
G37*
G36*
X127917249Y-67685820D02*
G01*
X128308086Y-68107067D01*
X128489057Y-68370759D01*
X128661789Y-68622447D01*
X128718744Y-68718724D01*
X128888141Y-69005072D01*
X128897478Y-69020856D01*
X128963348Y-68847605D01*
X128988543Y-68772293D01*
X129045814Y-68576686D01*
X129116764Y-68315921D01*
X129191534Y-68025523D01*
X129241326Y-67827371D01*
X129306532Y-67570701D01*
X129357130Y-67374889D01*
X129385075Y-67271287D01*
X129386071Y-67213530D01*
X129316278Y-67161323D01*
X129143364Y-67122697D01*
X129083590Y-67112494D01*
X128826234Y-67058801D01*
X128576206Y-66995235D01*
X128522599Y-66979460D01*
X128157487Y-66841415D01*
X127916513Y-66688920D01*
X127798185Y-66526505D01*
X127801015Y-66358702D01*
X127923512Y-66190042D01*
X128164187Y-66025056D01*
X128521550Y-65868274D01*
X128994111Y-65724228D01*
X129499750Y-65594236D01*
X129705053Y-64773613D01*
X129772462Y-64507681D01*
X129875502Y-64124256D01*
X129964260Y-63836834D01*
X130046378Y-63627153D01*
X130129501Y-63476947D01*
X130221271Y-63367953D01*
X130329332Y-63281909D01*
X130657016Y-63112985D01*
X131052115Y-62995984D01*
X131442825Y-62955175D01*
X131735088Y-62957970D01*
X131492152Y-63044611D01*
X131469684Y-63052772D01*
X131235690Y-63165479D01*
X131070038Y-63316756D01*
X130961192Y-63528302D01*
X130897616Y-63821818D01*
X130867771Y-64219003D01*
X130852755Y-64626225D01*
X131418277Y-64612625D01*
X131532877Y-64609252D01*
X131773916Y-64597754D01*
X131951891Y-64583080D01*
X132034678Y-64567578D01*
X132051751Y-64521422D01*
X132018783Y-64411363D01*
X132013670Y-64401633D01*
X131977115Y-64270846D01*
X132043147Y-64209516D01*
X132216782Y-64212609D01*
X132363870Y-64214660D01*
X132470335Y-64156782D01*
X132483728Y-64137205D01*
X132544706Y-64111230D01*
X132643357Y-64180351D01*
X132732628Y-64250799D01*
X132811449Y-64289223D01*
X132825191Y-64276195D01*
X132828583Y-64173037D01*
X132800115Y-63991439D01*
X132743563Y-63760792D01*
X132735512Y-63723973D01*
X132761806Y-63666908D01*
X132882475Y-63665303D01*
X132962204Y-63667009D01*
X133070078Y-63616325D01*
X133169274Y-63471946D01*
X133173501Y-63464169D01*
X133269328Y-63297811D01*
X133334252Y-63242523D01*
X133396810Y-63297344D01*
X133485542Y-63461316D01*
X133502940Y-63495017D01*
X133591998Y-63640783D01*
X133672447Y-63697076D01*
X133776449Y-63689079D01*
X133787886Y-63686313D01*
X133883425Y-63681574D01*
X133926403Y-63737945D01*
X133921365Y-63875461D01*
X133872855Y-64114161D01*
X133848492Y-64232241D01*
X133849003Y-64332703D01*
X133909675Y-64323532D01*
X134041982Y-64211318D01*
X134118477Y-64144479D01*
X134195720Y-64112094D01*
X134250402Y-64163163D01*
X134330402Y-64221546D01*
X134510794Y-64235316D01*
X134647352Y-64229454D01*
X134692062Y-64274822D01*
X134675247Y-64405094D01*
X134660001Y-64508133D01*
X134684043Y-64578093D01*
X134777762Y-64624988D01*
X134968520Y-64673896D01*
X135093157Y-64704976D01*
X135282738Y-64759556D01*
X135399991Y-64803041D01*
X135403943Y-64805253D01*
X135479512Y-64886149D01*
X135569100Y-65027118D01*
X135651293Y-65186828D01*
X135704675Y-65323951D01*
X135707831Y-65397154D01*
X135639296Y-65396619D01*
X135481103Y-65371412D01*
X135268171Y-65326875D01*
X135261759Y-65325433D01*
X135030189Y-65290844D01*
X134694274Y-65263141D01*
X134275967Y-65242332D01*
X133797227Y-65228426D01*
X133280008Y-65221431D01*
X132746266Y-65221355D01*
X132217959Y-65228208D01*
X131717042Y-65241997D01*
X131265471Y-65262731D01*
X130885202Y-65290419D01*
X130598192Y-65325069D01*
X130421055Y-65355561D01*
X130179812Y-65402655D01*
X130006365Y-65443637D01*
X129929771Y-65472113D01*
X129931823Y-65484055D01*
X130014172Y-65489950D01*
X130173086Y-65472856D01*
X130704796Y-65405096D01*
X131363005Y-65352103D01*
X132114861Y-65320580D01*
X132976441Y-65309591D01*
X133112741Y-65309626D01*
X133750157Y-65316519D01*
X134295029Y-65336625D01*
X134776168Y-65372627D01*
X135222385Y-65427207D01*
X135662492Y-65503051D01*
X136125299Y-65602839D01*
X136188802Y-65617737D01*
X136722712Y-65754498D01*
X137139549Y-65886292D01*
X137448233Y-66017611D01*
X137657680Y-66152947D01*
X137776809Y-66296791D01*
X137814537Y-66453634D01*
X137786373Y-66591400D01*
X137657278Y-66753434D01*
X137416504Y-66896048D01*
X137056351Y-67025043D01*
X137042352Y-67029158D01*
X136743171Y-67115334D01*
X136540523Y-67159712D01*
X136409267Y-67154926D01*
X136324265Y-67093611D01*
X136260376Y-66968401D01*
X136192462Y-66771930D01*
X136188425Y-66759868D01*
X136111301Y-66552460D01*
X136026561Y-66404528D01*
X135910443Y-66301171D01*
X135739184Y-66227485D01*
X135489022Y-66168571D01*
X135136195Y-66109525D01*
X134828140Y-66067730D01*
X134350673Y-66021453D01*
X133842999Y-65990129D01*
X133324728Y-65973481D01*
X132815472Y-65971235D01*
X132334840Y-65983114D01*
X131902444Y-66008842D01*
X131537895Y-66048145D01*
X131260802Y-66100747D01*
X131090778Y-66166372D01*
X130954932Y-66301211D01*
X130796302Y-66540220D01*
X130631962Y-66854279D01*
X130472908Y-67218133D01*
X130330137Y-67606529D01*
X130214642Y-67994212D01*
X130137422Y-68355929D01*
X130062569Y-68581468D01*
X129875232Y-68851415D01*
X129719801Y-69037457D01*
X129561481Y-69286467D01*
X129559171Y-69290100D01*
X129493733Y-69436666D01*
X129423387Y-69594223D01*
X129355816Y-69798298D01*
X129312049Y-69930483D01*
X129293210Y-69987379D01*
X129268528Y-70074781D01*
X129232952Y-70200756D01*
X129101698Y-70767451D01*
X129078880Y-70908659D01*
X129051326Y-71079169D01*
X129012182Y-71321406D01*
X128965764Y-71841630D01*
X128963804Y-72307130D01*
X129007662Y-72696912D01*
X129098697Y-72989984D01*
X129147610Y-73082772D01*
X129355141Y-73342218D01*
X129628813Y-73501248D01*
X129986006Y-73571245D01*
X130100879Y-73575628D01*
X130424794Y-73536210D01*
X130670890Y-73420522D01*
X130822789Y-73235143D01*
X130850346Y-73156763D01*
X130858549Y-72908071D01*
X130775455Y-72650836D01*
X130619937Y-72416512D01*
X130410869Y-72236553D01*
X130167125Y-72142415D01*
X130135834Y-72136865D01*
X129991284Y-72097083D01*
X129888503Y-72049183D01*
X129853959Y-72008904D01*
X129914117Y-71991980D01*
X129926446Y-71956722D01*
X129895813Y-71835508D01*
X129823007Y-71657770D01*
X129708441Y-71301233D01*
X129663645Y-70836534D01*
X129707025Y-70320928D01*
X129751565Y-70162298D01*
X129821097Y-70090819D01*
X129893141Y-70141825D01*
X129950434Y-70315686D01*
X130015564Y-70590214D01*
X130199324Y-71067055D01*
X130452562Y-71480969D01*
X130761513Y-71811543D01*
X131112407Y-72038367D01*
X131204830Y-72079761D01*
X131371388Y-72142994D01*
X131466434Y-72151816D01*
X131518535Y-72111360D01*
X131545781Y-72060044D01*
X131566654Y-71881915D01*
X131476254Y-71733860D01*
X131406406Y-71656077D01*
X131309480Y-71513974D01*
X131228130Y-71367808D01*
X131193985Y-71269600D01*
X131195779Y-71266067D01*
X131268714Y-71251846D01*
X131415368Y-71251561D01*
X131470816Y-71254622D01*
X131541397Y-71252958D01*
X131594742Y-71228254D01*
X131637349Y-71163444D01*
X131675718Y-71041458D01*
X131716351Y-70845231D01*
X131765746Y-70557694D01*
X131830405Y-70161780D01*
X131853264Y-70030317D01*
X131899561Y-69832620D01*
X131949444Y-69730139D01*
X132011421Y-69701226D01*
X132147391Y-69728797D01*
X132243173Y-69798287D01*
X132250605Y-69881126D01*
X132239767Y-69919390D01*
X132209788Y-70071928D01*
X132165603Y-70324993D01*
X132109722Y-70663297D01*
X132044652Y-71071549D01*
X131972901Y-71534459D01*
X131896979Y-72036739D01*
X131887190Y-72102326D01*
X131804270Y-72661629D01*
X131739416Y-73110017D01*
X131691340Y-73460978D01*
X131658752Y-73728002D01*
X131640364Y-73924578D01*
X131634888Y-74064194D01*
X131641035Y-74160340D01*
X131657516Y-74226504D01*
X131661905Y-74235044D01*
X131683042Y-74276176D01*
X131780835Y-74427790D01*
X135036408Y-74398779D01*
X135293249Y-74396407D01*
X136052442Y-74388155D01*
X136693252Y-74378983D01*
X137222521Y-74368678D01*
X137647091Y-74357025D01*
X137973804Y-74343811D01*
X138209500Y-74328823D01*
X138361023Y-74311848D01*
X138435213Y-74292670D01*
X138522142Y-74251267D01*
X138574239Y-74246381D01*
X138534308Y-74298532D01*
X138406369Y-74393646D01*
X138355931Y-74421565D01*
X138272868Y-74450309D01*
X138153465Y-74473276D01*
X137982560Y-74491635D01*
X137744991Y-74506560D01*
X137425596Y-74519221D01*
X137009213Y-74530791D01*
X136480680Y-74542440D01*
X136338329Y-74545183D01*
X135789462Y-74553446D01*
X135157077Y-74560098D01*
X134474913Y-74564937D01*
X133776713Y-74567759D01*
X133096217Y-74568362D01*
X132467168Y-74566544D01*
X132378463Y-74566078D01*
X131796355Y-74562695D01*
X131322053Y-74558603D01*
X130938387Y-74552728D01*
X130628186Y-74543996D01*
X130374283Y-74531334D01*
X130159506Y-74513666D01*
X129966686Y-74489920D01*
X129778654Y-74459022D01*
X129578239Y-74419898D01*
X129348272Y-74371473D01*
X129031699Y-74301601D01*
X128767279Y-74235436D01*
X128596618Y-74179728D01*
X128502645Y-74128760D01*
X128468291Y-74076817D01*
X128468123Y-74062705D01*
X129572101Y-74062705D01*
X129614656Y-74085723D01*
X129760107Y-74121193D01*
X130019720Y-74173827D01*
X130108217Y-74190886D01*
X130417425Y-74246925D01*
X130707975Y-74294901D01*
X130926863Y-74325927D01*
X131061117Y-74340348D01*
X131191114Y-74341874D01*
X131246216Y-74309633D01*
X131257644Y-74235044D01*
X131257597Y-74229043D01*
X131245683Y-74171557D01*
X131197107Y-74132069D01*
X131089244Y-74104558D01*
X130899463Y-74083000D01*
X130605138Y-74061374D01*
X130433152Y-74051118D01*
X130131524Y-74038591D01*
X129872407Y-74034321D01*
X129697995Y-74039333D01*
X129621179Y-74047432D01*
X129572101Y-74062705D01*
X128468123Y-74062705D01*
X128467647Y-74022602D01*
X128525878Y-73977211D01*
X128681376Y-73965414D01*
X128915445Y-73965414D01*
X128720948Y-73743894D01*
X128659011Y-73664844D01*
X128519545Y-73436847D01*
X128411973Y-73198347D01*
X128366557Y-73079947D01*
X128294673Y-72947168D01*
X128190421Y-72829533D01*
X128028289Y-72700008D01*
X127782768Y-72531558D01*
X127410868Y-72262162D01*
X126914331Y-71836583D01*
X126442212Y-71360234D01*
X126130993Y-70995017D01*
X127400499Y-70995017D01*
X127469925Y-71037093D01*
X127556488Y-71067382D01*
X127692732Y-71091804D01*
X127730328Y-71079169D01*
X127660903Y-71037093D01*
X127574340Y-71006804D01*
X127438096Y-70982383D01*
X127400499Y-70995017D01*
X126130993Y-70995017D01*
X126009003Y-70851861D01*
X125921925Y-70732264D01*
X126555699Y-70732264D01*
X126610527Y-70777086D01*
X126616693Y-70780440D01*
X126749824Y-70828708D01*
X126928822Y-70870081D01*
X127151629Y-70908659D01*
X126928822Y-70818571D01*
X126867971Y-70795068D01*
X126709589Y-70744535D01*
X126597109Y-70722507D01*
X126555699Y-70732264D01*
X125921925Y-70732264D01*
X125629193Y-70330212D01*
X125410982Y-69969108D01*
X127760395Y-69969108D01*
X127820051Y-70018547D01*
X127908427Y-70065435D01*
X127984335Y-70074781D01*
X127979198Y-70018547D01*
X127947311Y-69988301D01*
X127832208Y-69955862D01*
X127817732Y-69956078D01*
X127760395Y-69969108D01*
X125410982Y-69969108D01*
X125367521Y-69897188D01*
X127438096Y-69897188D01*
X127461932Y-69930701D01*
X127565414Y-69954888D01*
X127639161Y-69950346D01*
X127692732Y-69930483D01*
X127668257Y-69909739D01*
X127565414Y-69872783D01*
X127488792Y-69864442D01*
X127438096Y-69897188D01*
X125367521Y-69897188D01*
X125317272Y-69814035D01*
X125188131Y-69537257D01*
X126371005Y-69537257D01*
X126422132Y-69570866D01*
X126564642Y-69627502D01*
X126770228Y-69695793D01*
X126949567Y-69750958D01*
X127117267Y-69800515D01*
X127206083Y-69821340D01*
X127241028Y-69818808D01*
X127247118Y-69798298D01*
X127237884Y-69788031D01*
X127144085Y-69745313D01*
X126979564Y-69687708D01*
X126782202Y-69626583D01*
X126589880Y-69573301D01*
X126440479Y-69539226D01*
X126371879Y-69535724D01*
X126371005Y-69537257D01*
X125188131Y-69537257D01*
X125092764Y-69332863D01*
X125719592Y-69332863D01*
X125782958Y-69381955D01*
X125849484Y-69412901D01*
X126005765Y-69440165D01*
X126133083Y-69436666D01*
X126005765Y-69381955D01*
X125919431Y-69351146D01*
X125782958Y-69323745D01*
X125766836Y-69323256D01*
X125719592Y-69332863D01*
X125092764Y-69332863D01*
X125087732Y-69322078D01*
X125077209Y-69286467D01*
X125591980Y-69286467D01*
X125623810Y-69318296D01*
X125655639Y-69286467D01*
X125623810Y-69254637D01*
X125591980Y-69286467D01*
X125077209Y-69286467D01*
X124955062Y-68873087D01*
X124950565Y-68822730D01*
X127594146Y-68822730D01*
X127611915Y-68842596D01*
X127719498Y-68891881D01*
X127894991Y-68953775D01*
X128028461Y-68993138D01*
X128143204Y-69017176D01*
X128164374Y-69005072D01*
X128110281Y-68971014D01*
X127972582Y-68912507D01*
X127808844Y-68858116D01*
X127666791Y-68823104D01*
X127594146Y-68822730D01*
X124950565Y-68822730D01*
X124922110Y-68504074D01*
X124930507Y-68445308D01*
X126443749Y-68445308D01*
X126482499Y-68479501D01*
X126614186Y-68539027D01*
X126810302Y-68610998D01*
X127040535Y-68686528D01*
X127204280Y-68732552D01*
X127287556Y-68741819D01*
X127310777Y-68718724D01*
X127302595Y-68708839D01*
X127211211Y-68664858D01*
X127048623Y-68604975D01*
X126852707Y-68541134D01*
X126661339Y-68485280D01*
X126512394Y-68449356D01*
X126443750Y-68445307D01*
X126443749Y-68445308D01*
X124930507Y-68445308D01*
X124966927Y-68190437D01*
X125552755Y-68190437D01*
X125569354Y-68207110D01*
X125674767Y-68253634D01*
X125847785Y-68313949D01*
X125971314Y-68349909D01*
X126110680Y-68378285D01*
X126164913Y-68370759D01*
X126160721Y-68362696D01*
X126080857Y-68319822D01*
X125934319Y-68267665D01*
X125766916Y-68219720D01*
X125624458Y-68189479D01*
X125552755Y-68190437D01*
X124966927Y-68190437D01*
X124982631Y-68080536D01*
X125147921Y-67706869D01*
X125266574Y-67567670D01*
X126865163Y-67567670D01*
X126896993Y-67599499D01*
X126928822Y-67567670D01*
X126896993Y-67535840D01*
X126865163Y-67567670D01*
X125266574Y-67567670D01*
X125410499Y-67398822D01*
X125762886Y-67172143D01*
X125765027Y-67171165D01*
X126187688Y-67044781D01*
X126624497Y-67038186D01*
X127065198Y-67146248D01*
X127499534Y-67363837D01*
X127763971Y-67567670D01*
X127917249Y-67685820D01*
G37*
G36*
X135685437Y-71015335D02*
G01*
X135757999Y-71164520D01*
X135775659Y-71208164D01*
X135848064Y-71311567D01*
X135940696Y-71313176D01*
X135986004Y-71300298D01*
X136023127Y-71322858D01*
X136027810Y-71418945D01*
X136005658Y-71614563D01*
X135960049Y-71958380D01*
X136116667Y-71811245D01*
X136116961Y-71810969D01*
X136243578Y-71720282D01*
X136315588Y-71732556D01*
X136367524Y-71772899D01*
X136497366Y-71800955D01*
X136507589Y-71801034D01*
X136590873Y-71820403D01*
X136625865Y-71897615D01*
X136629640Y-72067012D01*
X136610465Y-72242403D01*
X136541020Y-72378945D01*
X136390918Y-72518849D01*
X136324259Y-72577142D01*
X136206162Y-72712298D01*
X136159399Y-72817904D01*
X136159216Y-72828330D01*
X136135837Y-72891222D01*
X136050992Y-72911765D01*
X135872933Y-72898939D01*
X135764284Y-72887688D01*
X135642782Y-72888946D01*
X135594867Y-72932385D01*
X135586467Y-73034077D01*
X135569780Y-73146783D01*
X135522807Y-73201504D01*
X135479912Y-73157417D01*
X135459148Y-73033703D01*
X135457679Y-72972002D01*
X135433372Y-72902791D01*
X135351981Y-72885503D01*
X135179194Y-72904275D01*
X135133820Y-72910305D01*
X134984673Y-72921659D01*
X134925746Y-72898065D01*
X134928390Y-72831173D01*
X134931302Y-72808704D01*
X134872411Y-72678769D01*
X134693676Y-72507652D01*
X134599234Y-72427255D01*
X134493591Y-72305283D01*
X134495417Y-72229997D01*
X134530337Y-72128748D01*
X134522679Y-71972667D01*
X134505814Y-71864019D01*
X134528378Y-71805890D01*
X134619275Y-71816230D01*
X134707894Y-71821508D01*
X134829771Y-71760481D01*
X134874167Y-71718913D01*
X134945842Y-71722432D01*
X135059105Y-71813912D01*
X135212884Y-71958380D01*
X135167352Y-71615142D01*
X135145594Y-71434227D01*
X135146451Y-71327857D01*
X135181787Y-71294996D01*
X135259929Y-71308020D01*
X135298526Y-71315623D01*
X135402781Y-71287794D01*
X135493887Y-71158785D01*
X135533953Y-71085917D01*
X135616145Y-70989251D01*
X135685437Y-71015335D01*
G37*
G36*
X151234798Y-67230702D02*
G01*
X151655334Y-67249374D01*
X151916343Y-68104747D01*
X151949386Y-68211429D01*
X152046943Y-68508481D01*
X152134857Y-68751314D01*
X152204572Y-68917225D01*
X152247531Y-68983513D01*
X152275415Y-68966191D01*
X152340956Y-68851955D01*
X152424994Y-68650339D01*
X152517881Y-68382776D01*
X152569762Y-68222311D01*
X152667284Y-67926653D01*
X152754953Y-67667814D01*
X152818552Y-67488096D01*
X152919052Y-67217544D01*
X153330999Y-67217544D01*
X153357212Y-67217599D01*
X153579805Y-67226138D01*
X153693205Y-67251535D01*
X153713394Y-67297118D01*
X153705461Y-67318460D01*
X153658353Y-67445122D01*
X153576631Y-67664817D01*
X153467125Y-67959187D01*
X153336664Y-68309871D01*
X153192078Y-68698510D01*
X152700312Y-70020328D01*
X152896522Y-70534149D01*
X152933390Y-70631219D01*
X153014902Y-70850127D01*
X153071522Y-71008515D01*
X153092732Y-71077270D01*
X153092720Y-71077488D01*
X153033135Y-71089522D01*
X152879702Y-71093209D01*
X152665225Y-71087746D01*
X152237718Y-71068923D01*
X151837364Y-69986717D01*
X151761062Y-69780392D01*
X151593409Y-69326656D01*
X151420662Y-68858698D01*
X151259259Y-68421057D01*
X151125636Y-68058270D01*
X150814262Y-67212029D01*
X151234798Y-67230702D01*
G37*
G36*
X144821694Y-67185715D02*
G01*
X144959595Y-67387477D01*
X145140418Y-67648929D01*
X145287155Y-67857359D01*
X145387435Y-67995256D01*
X145428889Y-68045113D01*
X145449742Y-68021734D01*
X145531497Y-67909847D01*
X145663067Y-67721452D01*
X145832181Y-67474193D01*
X146026567Y-67185715D01*
X146601750Y-66326316D01*
X146919851Y-66326316D01*
X147237951Y-66326316D01*
X146536770Y-67375300D01*
X146504086Y-67424273D01*
X146292239Y-67745559D01*
X146108661Y-68030476D01*
X145964158Y-68261777D01*
X145869532Y-68422216D01*
X145835589Y-68494546D01*
X145842855Y-68514778D01*
X145906458Y-68628229D01*
X146027134Y-68823290D01*
X146194616Y-69083878D01*
X146398636Y-69393907D01*
X146628925Y-69737292D01*
X147422261Y-70909775D01*
X147107387Y-70909775D01*
X146792514Y-70909775D01*
X146153885Y-69954888D01*
X145962266Y-69671600D01*
X145776084Y-69403198D01*
X145623697Y-69190852D01*
X145517160Y-69051336D01*
X145468531Y-69001421D01*
X145428429Y-69042855D01*
X145329304Y-69175829D01*
X145184315Y-69383791D01*
X145005352Y-69649648D01*
X144804304Y-69956308D01*
X144186802Y-70909775D01*
X143864475Y-70909775D01*
X143542147Y-70909775D01*
X144306913Y-69765192D01*
X144394579Y-69633551D01*
X144610817Y-69304863D01*
X144796965Y-69016251D01*
X144942705Y-68784057D01*
X145037716Y-68624618D01*
X145071680Y-68554276D01*
X145070942Y-68550121D01*
X145027608Y-68465239D01*
X144925187Y-68294638D01*
X144774482Y-68055500D01*
X144586295Y-67765010D01*
X144371429Y-67440351D01*
X144336508Y-67388068D01*
X144125586Y-67070439D01*
X143942868Y-66792219D01*
X143799078Y-66569962D01*
X143704941Y-66420217D01*
X143671178Y-66359538D01*
X143683441Y-66349881D01*
X143784418Y-66332998D01*
X143954086Y-66326316D01*
X144236994Y-66326316D01*
X144821694Y-67185715D01*
G37*
G36*
X156380888Y-69552975D02*
G01*
X156247792Y-69816856D01*
X156014916Y-70005240D01*
X155906138Y-70045145D01*
X155656720Y-70074275D01*
X155371348Y-70057613D01*
X155100457Y-69999672D01*
X154894483Y-69904967D01*
X154790952Y-69833421D01*
X154680530Y-69775003D01*
X154631608Y-69794667D01*
X154620552Y-69891228D01*
X154613530Y-69947620D01*
X154567199Y-69993494D01*
X154451926Y-70013901D01*
X154238597Y-70018547D01*
X153856642Y-70018547D01*
X153856642Y-68881267D01*
X153856972Y-68665302D01*
X154620552Y-68665302D01*
X154620552Y-69020019D01*
X154620878Y-69074875D01*
X154634507Y-69272164D01*
X154677366Y-69391700D01*
X154762035Y-69473834D01*
X154792702Y-69492072D01*
X154967445Y-69549704D01*
X155174352Y-69572933D01*
X155311178Y-69566395D01*
X155450655Y-69521131D01*
X155549159Y-69414249D01*
X155618490Y-69265085D01*
X155614267Y-69071904D01*
X155496968Y-68908601D01*
X155274498Y-68784553D01*
X154954762Y-68709139D01*
X154620552Y-68665302D01*
X153856972Y-68665302D01*
X153857124Y-68565840D01*
X153860332Y-68237357D01*
X153868354Y-68001076D01*
X153883239Y-67836848D01*
X153907038Y-67724523D01*
X153941802Y-67643951D01*
X153989581Y-67574983D01*
X154066881Y-67485183D01*
X154240812Y-67344135D01*
X154457663Y-67254040D01*
X154744859Y-67205630D01*
X155129825Y-67189638D01*
X155254253Y-67189864D01*
X155547482Y-67197774D01*
X155801913Y-67214084D01*
X155973309Y-67236344D01*
X156074050Y-67259601D01*
X156169599Y-67306024D01*
X156206146Y-67398630D01*
X156212030Y-67577975D01*
X156210832Y-67704189D01*
X156194945Y-67814329D01*
X156143851Y-67844727D01*
X156036968Y-67824352D01*
X156028620Y-67822315D01*
X155870730Y-67795808D01*
X155637063Y-67768795D01*
X155374994Y-67746824D01*
X155321216Y-67743281D01*
X155085543Y-67733089D01*
X154935600Y-67743339D01*
X154836741Y-67779662D01*
X154754318Y-67847688D01*
X154733826Y-67868519D01*
X154628203Y-68002052D01*
X154613680Y-68101954D01*
X154699308Y-68177022D01*
X154894141Y-68236053D01*
X155207231Y-68287845D01*
X155375791Y-68313443D01*
X155780807Y-68407891D01*
X156076282Y-68540271D01*
X156273440Y-68719546D01*
X156383504Y-68954680D01*
X156417698Y-69254637D01*
X156416409Y-69265085D01*
X156380888Y-69552975D01*
G37*
G36*
X171220651Y-68188346D02*
G01*
X171237542Y-70018547D01*
X170886440Y-70018547D01*
X170535339Y-70018547D01*
X170535339Y-69325338D01*
X170535339Y-68632130D01*
X169845357Y-68608513D01*
X169542016Y-68595510D01*
X169316910Y-68575944D01*
X169156380Y-68543896D01*
X169028270Y-68492821D01*
X168900419Y-68416175D01*
X168776394Y-68323280D01*
X168569511Y-68076892D01*
X168461750Y-67768577D01*
X168447905Y-67433030D01*
X169129995Y-67433030D01*
X169170564Y-67687307D01*
X169291092Y-67888859D01*
X169335022Y-67930492D01*
X169425093Y-67991814D01*
X169542245Y-68026391D01*
X169719866Y-68041674D01*
X169991342Y-68045113D01*
X170535339Y-68045113D01*
X170535339Y-67472181D01*
X170535339Y-66899248D01*
X170054734Y-66899248D01*
X169874274Y-66904037D01*
X169531486Y-66950984D01*
X169296244Y-67046467D01*
X169174381Y-67188567D01*
X169129995Y-67433030D01*
X168447905Y-67433030D01*
X168445786Y-67381669D01*
X168459029Y-67245243D01*
X168548338Y-66911902D01*
X168720377Y-66663870D01*
X168984531Y-66485535D01*
X169001206Y-66477857D01*
X169124072Y-66434898D01*
X169283942Y-66404455D01*
X169503381Y-66384334D01*
X169804953Y-66372341D01*
X170211223Y-66366283D01*
X171203760Y-66358146D01*
X171214041Y-67472181D01*
X171220651Y-68188346D01*
G37*
G36*
X164551379Y-68172431D02*
G01*
X164551379Y-69068448D01*
X164551379Y-70018547D01*
X163521102Y-70018547D01*
X163514525Y-70018546D01*
X163119813Y-70016849D01*
X162828224Y-70010212D01*
X162615929Y-69996210D01*
X162459101Y-69972419D01*
X162333911Y-69936412D01*
X162216533Y-69885765D01*
X162213207Y-69884151D01*
X161947673Y-69720727D01*
X161779826Y-69522854D01*
X161694533Y-69263322D01*
X161676662Y-68914916D01*
X161679241Y-68846505D01*
X162514286Y-68846505D01*
X162544029Y-69095618D01*
X162647665Y-69267187D01*
X162840737Y-69375259D01*
X163007868Y-69417539D01*
X163232627Y-69442765D01*
X163448107Y-69441073D01*
X163615778Y-69413159D01*
X163697106Y-69359725D01*
X163711020Y-69257475D01*
X163716097Y-69068448D01*
X163711023Y-68834537D01*
X163691980Y-68395238D01*
X163275308Y-68395238D01*
X163251991Y-68395320D01*
X162914899Y-68422762D01*
X162685960Y-68503326D01*
X162555611Y-68642683D01*
X162514286Y-68846505D01*
X161679241Y-68846505D01*
X161680703Y-68807719D01*
X161711692Y-68548859D01*
X161787209Y-68368180D01*
X161928538Y-68229406D01*
X162156963Y-68096257D01*
X162404402Y-67969972D01*
X162224915Y-67852230D01*
X162039412Y-67690518D01*
X161918896Y-67458290D01*
X161903676Y-67336464D01*
X162768923Y-67336464D01*
X162789903Y-67513053D01*
X162895596Y-67694404D01*
X162940492Y-67726208D01*
X163117964Y-67797221D01*
X163340140Y-67839585D01*
X163514632Y-67850031D01*
X163636847Y-67825616D01*
X163699973Y-67741736D01*
X163719604Y-67575972D01*
X163711334Y-67305905D01*
X163691980Y-66931078D01*
X163384092Y-66911450D01*
X163173961Y-66912479D01*
X162944875Y-66975272D01*
X162811895Y-67115197D01*
X162768923Y-67336464D01*
X161903676Y-67336464D01*
X161879950Y-67146555D01*
X161909158Y-66885942D01*
X162015701Y-66677312D01*
X162056818Y-66627601D01*
X162175065Y-66516460D01*
X162319489Y-66435796D01*
X162510273Y-66381029D01*
X162767601Y-66347580D01*
X163111654Y-66330869D01*
X163562617Y-66326316D01*
X164551379Y-66326316D01*
X164551379Y-67575972D01*
X164551379Y-68172431D01*
G37*
G36*
X158905990Y-66339585D02*
G01*
X159357689Y-66358146D01*
X159661430Y-67560990D01*
X159771485Y-67993889D01*
X159856961Y-68321047D01*
X159921339Y-68552546D01*
X159969111Y-68702474D01*
X160004770Y-68784920D01*
X160032808Y-68813972D01*
X160057718Y-68803718D01*
X160067843Y-68775816D01*
X160101841Y-68642461D01*
X160153089Y-68419273D01*
X160216649Y-68128022D01*
X160287582Y-67790477D01*
X160324727Y-67611324D01*
X160398074Y-67261781D01*
X160464179Y-66952001D01*
X160516967Y-66710311D01*
X160550363Y-66565038D01*
X160609419Y-66326316D01*
X161050581Y-66326316D01*
X161105451Y-66326537D01*
X161328167Y-66335928D01*
X161442974Y-66361367D01*
X161465710Y-66405890D01*
X161450213Y-66462554D01*
X161406762Y-66630662D01*
X161340667Y-66890573D01*
X161256379Y-67224687D01*
X161158351Y-67615400D01*
X161051035Y-68045113D01*
X160968281Y-68375935D01*
X160862897Y-68793492D01*
X160767931Y-69165651D01*
X160688411Y-69472860D01*
X160629370Y-69695569D01*
X160595837Y-69814228D01*
X160529280Y-70023694D01*
X160041708Y-70005206D01*
X159554136Y-69986717D01*
X159271195Y-68855592D01*
X159181180Y-68509188D01*
X159093468Y-68197947D01*
X159017405Y-67954539D01*
X158958846Y-67797658D01*
X158923648Y-67746003D01*
X158890723Y-67805270D01*
X158832413Y-67969649D01*
X158755944Y-68219016D01*
X158667405Y-68533453D01*
X158572888Y-68893042D01*
X158286734Y-70018547D01*
X157795422Y-70018547D01*
X157304110Y-70018547D01*
X157239297Y-69811654D01*
X157220546Y-69745870D01*
X157171339Y-69562170D01*
X157100403Y-69291271D01*
X157013163Y-68954408D01*
X156915044Y-68572817D01*
X156811472Y-68167734D01*
X156707873Y-67760397D01*
X156609671Y-67372039D01*
X156522293Y-67023898D01*
X156451163Y-66737209D01*
X156401708Y-66533208D01*
X156352757Y-66326316D01*
X156786392Y-66326316D01*
X157220027Y-66326316D01*
X157292806Y-66660527D01*
X157298928Y-66688709D01*
X157343781Y-66897014D01*
X157406104Y-67188373D01*
X157478491Y-67528091D01*
X157553531Y-67881474D01*
X157579289Y-68001938D01*
X157646726Y-68307187D01*
X157705093Y-68557272D01*
X157748859Y-68729012D01*
X157772493Y-68799227D01*
X157786296Y-68811410D01*
X157812348Y-68818333D01*
X157839812Y-68791511D01*
X157872541Y-68718035D01*
X157914387Y-68584995D01*
X157969203Y-68379480D01*
X158040840Y-68088579D01*
X158133151Y-67699384D01*
X158249989Y-67198984D01*
X158454291Y-66321025D01*
X158905990Y-66339585D01*
G37*
G36*
X166692368Y-66435823D02*
G01*
X167108400Y-66564767D01*
X167484070Y-66781285D01*
X167798242Y-67080775D01*
X168029780Y-67458636D01*
X168082778Y-67627034D01*
X168127429Y-67925643D01*
X168138970Y-68256445D01*
X168116314Y-68568039D01*
X168058373Y-68809023D01*
X167939450Y-69051333D01*
X167663757Y-69414159D01*
X167315956Y-69693960D01*
X166918191Y-69870127D01*
X166836804Y-69890695D01*
X166444148Y-69934624D01*
X166032904Y-69904965D01*
X165637696Y-69809412D01*
X165293146Y-69655658D01*
X165033878Y-69451398D01*
X164994854Y-69407391D01*
X164949482Y-69330145D01*
X164977425Y-69254398D01*
X165086356Y-69133712D01*
X165261097Y-68951322D01*
X165581056Y-69166639D01*
X165664834Y-69221581D01*
X165856246Y-69324068D01*
X166042078Y-69370831D01*
X166288304Y-69381955D01*
X166459117Y-69375393D01*
X166856559Y-69293106D01*
X167170236Y-69115430D01*
X167402160Y-68840912D01*
X167554346Y-68468098D01*
X167564269Y-68428274D01*
X167589671Y-68064877D01*
X167506495Y-67724535D01*
X167331590Y-67424156D01*
X167081808Y-67180647D01*
X166773999Y-67010915D01*
X166425015Y-66931868D01*
X166051704Y-66960412D01*
X165972185Y-66983777D01*
X165747059Y-67081053D01*
X165532989Y-67207577D01*
X165264576Y-67396772D01*
X165058074Y-67224377D01*
X164851573Y-67051982D01*
X165117281Y-66824546D01*
X165413450Y-66620450D01*
X165823757Y-66459063D01*
X166257108Y-66399055D01*
X166692368Y-66435823D01*
G37*
G36*
X134315890Y-68325013D02*
G01*
X134299466Y-68507815D01*
X134191507Y-68679087D01*
X133997421Y-68808015D01*
X133970261Y-68819886D01*
X133833393Y-68919765D01*
X133819785Y-69030352D01*
X133931329Y-69142092D01*
X133991715Y-69183360D01*
X134051521Y-69258881D01*
X133988964Y-69300139D01*
X133803843Y-69307395D01*
X133752102Y-69306281D01*
X133591627Y-69315589D01*
X133505441Y-69341009D01*
X133486321Y-69355590D01*
X133387010Y-69357105D01*
X133312982Y-69277542D01*
X133342327Y-69213074D01*
X133452237Y-69139653D01*
X133491749Y-69119458D01*
X133596603Y-69017552D01*
X133589832Y-68914309D01*
X133469800Y-68837826D01*
X133423378Y-68821379D01*
X133235202Y-68706482D01*
X133095065Y-68549341D01*
X133040101Y-68388762D01*
X133063571Y-68278511D01*
X133098030Y-68236962D01*
X133835840Y-68236962D01*
X133851944Y-68284460D01*
X133944200Y-68342085D01*
X134065956Y-68349781D01*
X134156285Y-68296273D01*
X134158463Y-68292547D01*
X134150921Y-68205505D01*
X134061046Y-68139125D01*
X133931329Y-68125639D01*
X133887854Y-68143687D01*
X133835840Y-68236962D01*
X133098030Y-68236962D01*
X133183511Y-68133892D01*
X133379105Y-68033178D01*
X133620918Y-67984779D01*
X133879516Y-67997109D01*
X134125467Y-68078577D01*
X134235369Y-68161497D01*
X134299903Y-68292547D01*
X134315890Y-68325013D01*
G37*
G36*
X132207108Y-67825297D02*
G01*
X132198903Y-68041415D01*
X132107382Y-68234153D01*
X131937819Y-68362965D01*
X131846308Y-68399022D01*
X131779671Y-68423033D01*
X131778629Y-68423121D01*
X131710295Y-68397179D01*
X131580493Y-68333934D01*
X131438875Y-68237784D01*
X131347020Y-68084945D01*
X131321304Y-67853550D01*
X131330540Y-67794875D01*
X131546829Y-67794875D01*
X131556592Y-67808303D01*
X131639599Y-67854136D01*
X131690275Y-67840213D01*
X131738175Y-67768941D01*
X131704297Y-67695630D01*
X131627495Y-67679094D01*
X131550964Y-67719411D01*
X131546829Y-67794875D01*
X131330540Y-67794875D01*
X131334082Y-67772370D01*
X131432224Y-67599245D01*
X131591028Y-67463456D01*
X131766918Y-67408522D01*
X131769852Y-67408566D01*
X131896384Y-67448425D01*
X132044799Y-67540460D01*
X132126723Y-67626345D01*
X132184338Y-67768941D01*
X132207108Y-67825297D01*
G37*
G36*
X135709279Y-67856217D02*
G01*
X135694625Y-68072038D01*
X135608430Y-68246993D01*
X135564931Y-68285479D01*
X135384064Y-68353666D01*
X135177350Y-68344876D01*
X135002632Y-68258054D01*
X134924360Y-68137891D01*
X134886216Y-67917795D01*
X134912791Y-67758647D01*
X135077193Y-67758647D01*
X135084375Y-67802575D01*
X135140853Y-67854136D01*
X135170138Y-67843363D01*
X135204512Y-67758647D01*
X135197330Y-67714719D01*
X135140853Y-67663158D01*
X135111567Y-67673931D01*
X135077193Y-67758647D01*
X134912791Y-67758647D01*
X134916194Y-67738269D01*
X135029284Y-67562866D01*
X135198802Y-67466488D01*
X135395112Y-67463827D01*
X135588576Y-67569579D01*
X135654071Y-67656926D01*
X135682250Y-67758647D01*
X135709279Y-67856217D01*
G37*
D13*
%TO.C,LED1*%
X148326100Y-91508600D02*
X148476100Y-91358600D01*
X148476100Y-91358600D02*
X148651100Y-91533600D01*
X148501100Y-91683600D02*
X148326100Y-91508600D01*
X148651100Y-91533600D02*
X148501100Y-91683600D01*
D14*
X148288600Y-91933600D02*
G75*
G02*
X148163600Y-91933600I-62500J0D01*
G01*
X148163600Y-91933600D02*
G75*
G02*
X148288600Y-91933600I62500J0D01*
G01*
%TD*%
M02*
