%TF.GenerationSoftware,KiCad,Pcbnew,8.0.8-8.0.8-0~ubuntu22.04.1*%
%TF.CreationDate,2025-02-06T23:59:06-05:00*%
%TF.ProjectId,F50FQLOJRETY30F,46353046-514c-44f4-9a52-455459333046,rev?*%
%TF.SameCoordinates,Original*%
%TF.FileFunction,Copper,L1,Top*%
%TF.FilePolarity,Positive*%
%FSLAX46Y46*%
G04 Gerber Fmt 4.6, Leading zero omitted, Abs format (unit mm)*
G04 Created by KiCad (PCBNEW 8.0.8-8.0.8-0~ubuntu22.04.1) date 2025-02-06 23:59:06*
%MOMM*%
%LPD*%
G01*
G04 APERTURE LIST*
%TA.AperFunction,ComponentPad*%
%ADD10C,0.808000*%
%TD*%
%TA.AperFunction,ViaPad*%
%ADD11C,0.706400*%
%TD*%
%TA.AperFunction,Conductor*%
%ADD12C,0.250000*%
%TD*%
G04 APERTURE END LIST*
D10*
%TO.P,ANT0,P$2*%
%TO.N,N$9*%
X147866100Y-122778600D03*
%TD*%
D11*
%TO.N,N$9*%
X147917100Y-118974600D03*
%TD*%
D12*
%TO.N,N$9*%
X147917100Y-122727600D02*
X147866100Y-122778600D01*
X147917100Y-118974600D02*
X147917100Y-122727600D01*
%TD*%
%TA.AperFunction,NonConductor*%
G36*
X172505079Y-63228693D02*
G01*
X172793833Y-63249345D01*
X172798973Y-63250084D01*
X173083198Y-63311913D01*
X173088194Y-63313380D01*
X173360720Y-63415027D01*
X173365458Y-63417191D01*
X173506949Y-63494451D01*
X173620743Y-63556587D01*
X173625121Y-63559400D01*
X173857976Y-63733714D01*
X173861911Y-63737125D01*
X174067574Y-63942788D01*
X174070985Y-63946723D01*
X174245299Y-64179578D01*
X174248114Y-64183959D01*
X174387508Y-64439241D01*
X174389672Y-64443979D01*
X174491319Y-64716505D01*
X174492786Y-64721501D01*
X174554614Y-65005719D01*
X174555355Y-65010874D01*
X174576007Y-65299620D01*
X174576100Y-65302224D01*
X174576100Y-113804975D01*
X174576007Y-113807579D01*
X174555355Y-114096325D01*
X174554614Y-114101480D01*
X174492786Y-114385698D01*
X174491319Y-114390694D01*
X174389672Y-114663220D01*
X174387508Y-114667958D01*
X174248114Y-114923240D01*
X174245299Y-114927621D01*
X174070985Y-115160476D01*
X174067574Y-115164411D01*
X173861911Y-115370074D01*
X173857976Y-115373485D01*
X173625121Y-115547799D01*
X173620740Y-115550614D01*
X173365458Y-115690008D01*
X173360720Y-115692172D01*
X173088194Y-115793819D01*
X173083198Y-115795286D01*
X172798980Y-115857114D01*
X172793825Y-115857855D01*
X172505079Y-115878507D01*
X172502475Y-115878600D01*
X124499725Y-115878600D01*
X124497121Y-115878507D01*
X124208374Y-115857855D01*
X124203219Y-115857114D01*
X123919001Y-115795286D01*
X123914005Y-115793819D01*
X123641479Y-115692172D01*
X123636741Y-115690008D01*
X123381459Y-115550614D01*
X123377078Y-115547799D01*
X123144223Y-115373485D01*
X123140288Y-115370074D01*
X122934625Y-115164411D01*
X122931214Y-115160476D01*
X122756900Y-114927621D01*
X122754085Y-114923240D01*
X122614691Y-114667958D01*
X122612527Y-114663220D01*
X122510880Y-114390694D01*
X122509413Y-114385698D01*
X122447585Y-114101480D01*
X122446845Y-114096333D01*
X122426193Y-113807579D01*
X122426100Y-113804975D01*
X122426100Y-65302224D01*
X122426193Y-65299620D01*
X122446845Y-65010864D01*
X122447583Y-65005728D01*
X122509414Y-64721497D01*
X122510880Y-64716505D01*
X122612527Y-64443979D01*
X122614691Y-64439241D01*
X122754091Y-64183949D01*
X122756893Y-64179588D01*
X122931220Y-63946715D01*
X122934618Y-63942795D01*
X123140295Y-63737118D01*
X123144215Y-63733720D01*
X123377088Y-63559393D01*
X123381449Y-63556591D01*
X123636741Y-63417190D01*
X123641479Y-63415027D01*
X123914008Y-63313378D01*
X123918997Y-63311914D01*
X124203228Y-63250083D01*
X124208364Y-63249345D01*
X124497121Y-63228693D01*
X124499725Y-63228600D01*
X172502475Y-63228600D01*
X172505079Y-63228693D01*
G37*
%TD.AperFunction*%
M02*
