%TF.GenerationSoftware,KiCad,Pcbnew,8.0.8-8.0.8-0~ubuntu22.04.1*%
%TF.CreationDate,2025-02-06T23:59:06-05:00*%
%TF.ProjectId,F50FQLOJRETY30F,46353046-514c-44f4-9a52-455459333046,rev?*%
%TF.SameCoordinates,Original*%
%TF.FileFunction,Copper,L2,Bot*%
%TF.FilePolarity,Positive*%
%FSLAX46Y46*%
G04 Gerber Fmt 4.6, Leading zero omitted, Abs format (unit mm)*
G04 Created by KiCad (PCBNEW 8.0.8-8.0.8-0~ubuntu22.04.1) date 2025-02-06 23:59:06*
%MOMM*%
%LPD*%
G01*
G04 APERTURE LIST*
%TA.AperFunction,EtchedComponent*%
%ADD10C,0.300000*%
%TD*%
%TA.AperFunction,SMDPad,CuDef*%
%ADD11R,1.000000X1.100000*%
%TD*%
%TA.AperFunction,ComponentPad*%
%ADD12C,0.808000*%
%TD*%
%TA.AperFunction,SMDPad,CuDef*%
%ADD13R,0.300000X0.750000*%
%TD*%
%TA.AperFunction,SMDPad,CuDef*%
%ADD14R,1.100000X1.000000*%
%TD*%
%TA.AperFunction,SMDPad,CuDef*%
%ADD15R,0.270000X0.450000*%
%TD*%
%TA.AperFunction,SMDPad,CuDef*%
%ADD16R,0.450000X0.370000*%
%TD*%
%TA.AperFunction,SMDPad,CuDef*%
%ADD17R,0.450000X0.270000*%
%TD*%
%TA.AperFunction,SMDPad,CuDef*%
%ADD18R,1.200000X1.200000*%
%TD*%
%TA.AperFunction,ViaPad*%
%ADD19C,0.706400*%
%TD*%
%TA.AperFunction,Conductor*%
%ADD20C,0.250000*%
%TD*%
G04 APERTURE END LIST*
D10*
%TO.C,ANT0*%
X172501100Y-142103600D02*
G75*
G02*
X169801100Y-144803600I-2700001J1D01*
G01*
X171901100Y-142103600D02*
G75*
G02*
X169801100Y-144203600I-2100001J1D01*
G01*
X171301100Y-142103600D02*
G75*
G02*
X169801100Y-143603600I-1500001J1D01*
G01*
X170701100Y-142103600D02*
G75*
G02*
X169801100Y-143003600I-900000J0D01*
G01*
X170101100Y-142103600D02*
G75*
G02*
X169801100Y-142403600I-300000J0D01*
G01*
X169801100Y-122203600D02*
G75*
G02*
X170101100Y-122503600I0J-300000D01*
G01*
X169801100Y-121603600D02*
G75*
G02*
X170701100Y-122503600I0J-900000D01*
G01*
X169801100Y-121003600D02*
G75*
G02*
X171301100Y-122503600I-1J-1500001D01*
G01*
X169801100Y-120403600D02*
G75*
G02*
X171901100Y-122503600I-1J-2100001D01*
G01*
X169801100Y-119803600D02*
G75*
G02*
X172501100Y-122503600I-1J-2700001D01*
G01*
X127201100Y-144803600D02*
G75*
G02*
X124501100Y-142103600I0J2700000D01*
G01*
X127201100Y-144203600D02*
G75*
G02*
X125101100Y-142103600I0J2100000D01*
G01*
X127201100Y-143603600D02*
G75*
G02*
X125701100Y-142103600I0J1500000D01*
G01*
X127201100Y-143003600D02*
G75*
G02*
X126301100Y-142103600I0J900000D01*
G01*
X127201100Y-142403600D02*
G75*
G02*
X126901100Y-142103600I0J300000D01*
G01*
X126901100Y-122503600D02*
G75*
G02*
X127201100Y-122203600I300000J0D01*
G01*
X126301100Y-122503600D02*
G75*
G02*
X127201100Y-121603600I900000J0D01*
G01*
X125701100Y-122503600D02*
G75*
G02*
X127201100Y-121003600I1500000J0D01*
G01*
X125101100Y-122503600D02*
G75*
G02*
X127201100Y-120403600I2100000J0D01*
G01*
X124501100Y-122503600D02*
G75*
G02*
X127201100Y-119803600I2700000J0D01*
G01*
X172501100Y-142103600D02*
X172501100Y-122503600D01*
X171901100Y-142103600D02*
X171901100Y-122503600D01*
X171301100Y-142103600D02*
X171301100Y-122503600D01*
X170701100Y-142103600D02*
X170701100Y-122503600D01*
X170101100Y-142103600D02*
X170101100Y-122503600D01*
X169801100Y-119803600D02*
X149301100Y-119803600D01*
X149301100Y-119803600D02*
X149136100Y-119638600D01*
X149136100Y-119638600D02*
X149136100Y-118968600D01*
X149136100Y-118968600D02*
X149136100Y-118841600D01*
X149101100Y-120403600D02*
X169801100Y-120403600D01*
X148901100Y-121003600D02*
X169801100Y-121003600D01*
X148701100Y-121603600D02*
X169801100Y-121603600D01*
X148501100Y-122203600D02*
X169801100Y-122203600D01*
X148501100Y-119803600D02*
X149101100Y-120403600D01*
X148301100Y-120403600D02*
X148901100Y-121003600D01*
X148101100Y-121003600D02*
X148701100Y-121603600D01*
X147901100Y-121603600D02*
X148501100Y-122203600D01*
X147901100Y-121603600D02*
X127201100Y-121603600D01*
X147866100Y-122368600D02*
X147866100Y-122778600D01*
X147701100Y-122203600D02*
X147866100Y-122368600D01*
X147701100Y-122203600D02*
X127201100Y-122203600D01*
X127201100Y-144803600D02*
X169801100Y-144803600D01*
X127201100Y-144203600D02*
X169801100Y-144203600D01*
X127201100Y-143603600D02*
X169801100Y-143603600D01*
X127201100Y-143003600D02*
X169801100Y-143003600D01*
X127201100Y-142403600D02*
X169801100Y-142403600D01*
X127201100Y-121003600D02*
X148101100Y-121003600D01*
X127201100Y-120403600D02*
X148301100Y-120403600D01*
X127201100Y-119803600D02*
X148501100Y-119803600D01*
X126901100Y-142103600D02*
X126901100Y-122503600D01*
X126301100Y-142103600D02*
X126301100Y-122503600D01*
X125701100Y-142103600D02*
X125701100Y-122503600D01*
X125101100Y-142103600D02*
X125101100Y-122503600D01*
X124501100Y-142103600D02*
X124501100Y-122503600D01*
%TD*%
D11*
%TO.P,R1,2*%
%TO.N,N$4*%
X149351100Y-95000000D03*
%TO.P,R1,1*%
%TO.N,N$3*%
X147651100Y-95000000D03*
%TD*%
D12*
%TO.P,ANT0,P$2*%
%TO.N,N$9*%
X147866100Y-122778600D03*
D13*
%TO.P,ANT0,P$1*%
%TO.N,N$2*%
X149136100Y-118968600D03*
%TD*%
D14*
%TO.P,C1,2*%
%TO.N,N$6*%
X147651100Y-97403600D03*
%TO.P,C1,1*%
%TO.N,N$3*%
X149351100Y-97403600D03*
%TD*%
D15*
%TO.P,NT3H1101,FD*%
%TO.N,N/C*%
X148501100Y-99293600D03*
D16*
%TO.P,NT3H1101,LA*%
%TO.N,N$9*%
X147901100Y-100443600D03*
D15*
%TO.P,NT3H1101,LB*%
%TO.N,N$2*%
X148501100Y-100493600D03*
D17*
%TO.P,NT3H1101,SCL*%
%TO.N,N/C*%
X147901100Y-99393600D03*
%TO.P,NT3H1101,SDA*%
X149101100Y-99393600D03*
%TO.P,NT3H1101,VCC*%
%TO.N,N$3*%
X149101100Y-99893600D03*
%TO.P,NT3H1101,VOUT*%
X149101100Y-100393600D03*
%TO.P,NT3H1101,VSS*%
%TO.N,N$6*%
X147901100Y-99893600D03*
%TD*%
D18*
%TO.P,LED1,A*%
%TO.N,N$4*%
X149551100Y-91533600D03*
%TO.P,LED1,C*%
%TO.N,N$6*%
X147451100Y-91533600D03*
%TD*%
D19*
%TO.N,N$9*%
X147917100Y-118974600D03*
%TD*%
D20*
%TO.N,N$4*%
X151500000Y-92240598D02*
X151500000Y-93500000D01*
X151129701Y-91870299D02*
X151500000Y-92240598D01*
X151500000Y-93500000D02*
X150000000Y-95000000D01*
X150501100Y-91203600D02*
X151129701Y-91870299D01*
X151129701Y-91870299D02*
X151161100Y-91903600D01*
X150000000Y-95000000D02*
X149351100Y-95000000D01*
%TO.N,N$3*%
X147651100Y-95000000D02*
X149351100Y-96700000D01*
X149351100Y-96700000D02*
X149351100Y-97403600D01*
%TO.N,N$2*%
X148501100Y-100849600D02*
X148501100Y-100493600D01*
X149136100Y-101484600D02*
X149136100Y-118968600D01*
X149136100Y-101484600D02*
X148501100Y-100849600D01*
%TO.N,N$3*%
X150201100Y-97403600D02*
X150051100Y-99893600D01*
X150051100Y-99893600D02*
X149101100Y-99893600D01*
X149351100Y-97403600D02*
X150201100Y-97403600D01*
X149101100Y-100393600D02*
X149101100Y-99893600D01*
%TO.N,N$4*%
X149551100Y-91533600D02*
X150201100Y-91503600D01*
X150201100Y-91503600D02*
X150501100Y-91203600D01*
%TO.N,N$6*%
X147901100Y-99893600D02*
X146951100Y-99893600D01*
X146801100Y-97403600D02*
X147651100Y-97403600D01*
X146501100Y-91203600D02*
X145851100Y-91893600D01*
X146801100Y-91503600D02*
X146501100Y-91203600D01*
X147451100Y-91533600D02*
X146801100Y-91503600D01*
X145851100Y-91893600D02*
X146801100Y-97403600D01*
X146951100Y-99893600D02*
X146801100Y-97403600D01*
%TO.N,N$9*%
X147901100Y-118958600D02*
X147917100Y-118974600D01*
X147901100Y-100443600D02*
X147901100Y-118958600D01*
%TD*%
M02*
