%TF.GenerationSoftware,KiCad,Pcbnew,8.0.6-8.0.6-0~ubuntu22.04.1*%
%TF.CreationDate,2024-12-08T13:20:56-05:00*%
%TF.ProjectId,badge,62616467-652e-46b6-9963-61645f706362,rev?*%
%TF.SameCoordinates,Original*%
%TF.FileFunction,Drillmap*%
%TF.FilePolarity,Positive*%
%FSLAX45Y45*%
G04 Gerber Fmt 4.5, Leading zero omitted, Abs format (unit mm)*
G04 Created by KiCad (PCBNEW 8.0.6-8.0.6-0~ubuntu22.04.1) date 2024-12-08 13:20:56*
%MOMM*%
%LPD*%
G01*
G04 APERTURE LIST*
%ADD10C,0.050000*%
%ADD11C,0.200000*%
%ADD12C,0.100000*%
G04 APERTURE END LIST*
D10*
X11476640Y-5761360D02*
X19176640Y-5761360D01*
X19176640Y-14411360D01*
X11476640Y-14411360D01*
X11476640Y-5761360D01*
X18450000Y-6500000D02*
G75*
G02*
X17668975Y-6500000I-390513J0D01*
G01*
X17668975Y-6500000D02*
G75*
G02*
X18450000Y-6500000I390513J0D01*
G01*
X12890512Y-6500000D02*
G75*
G02*
X12109487Y-6500000I-390513J0D01*
G01*
X12109487Y-6500000D02*
G75*
G02*
X12890512Y-6500000I390513J0D01*
G01*
D11*
D12*
X12248140Y-12868860D02*
X12313140Y-12933860D01*
X12313140Y-12868860D02*
X12248140Y-12933860D01*
X12248140Y-13588860D02*
X12313140Y-13653860D01*
X12313140Y-13588860D02*
X12248140Y-13653860D01*
X12248140Y-13606360D02*
X12248140Y-13636360D01*
X12313140Y-13636360D02*
G75*
G02*
X12248140Y-13636360I-32500J0D01*
G01*
X12313140Y-13636360D02*
X12313140Y-13606360D01*
X12313140Y-13606360D02*
G75*
G03*
X12248140Y-13606360I-32500J0D01*
G01*
D11*
X11734917Y-14725344D02*
X11734917Y-14525344D01*
X11734917Y-14525344D02*
X11782536Y-14525344D01*
X11782536Y-14525344D02*
X11811107Y-14534868D01*
X11811107Y-14534868D02*
X11830155Y-14553915D01*
X11830155Y-14553915D02*
X11839679Y-14572963D01*
X11839679Y-14572963D02*
X11849202Y-14611058D01*
X11849202Y-14611058D02*
X11849202Y-14639630D01*
X11849202Y-14639630D02*
X11839679Y-14677725D01*
X11839679Y-14677725D02*
X11830155Y-14696772D01*
X11830155Y-14696772D02*
X11811107Y-14715820D01*
X11811107Y-14715820D02*
X11782536Y-14725344D01*
X11782536Y-14725344D02*
X11734917Y-14725344D01*
X11934917Y-14725344D02*
X11934917Y-14592010D01*
X11934917Y-14630106D02*
X11944441Y-14611058D01*
X11944441Y-14611058D02*
X11953964Y-14601534D01*
X11953964Y-14601534D02*
X11973012Y-14592010D01*
X11973012Y-14592010D02*
X11992060Y-14592010D01*
X12058726Y-14725344D02*
X12058726Y-14592010D01*
X12058726Y-14525344D02*
X12049202Y-14534868D01*
X12049202Y-14534868D02*
X12058726Y-14544391D01*
X12058726Y-14544391D02*
X12068250Y-14534868D01*
X12068250Y-14534868D02*
X12058726Y-14525344D01*
X12058726Y-14525344D02*
X12058726Y-14544391D01*
X12182536Y-14725344D02*
X12163488Y-14715820D01*
X12163488Y-14715820D02*
X12153964Y-14696772D01*
X12153964Y-14696772D02*
X12153964Y-14525344D01*
X12287298Y-14725344D02*
X12268250Y-14715820D01*
X12268250Y-14715820D02*
X12258726Y-14696772D01*
X12258726Y-14696772D02*
X12258726Y-14525344D01*
X12515869Y-14725344D02*
X12515869Y-14525344D01*
X12515869Y-14525344D02*
X12582536Y-14668201D01*
X12582536Y-14668201D02*
X12649202Y-14525344D01*
X12649202Y-14525344D02*
X12649202Y-14725344D01*
X12830155Y-14725344D02*
X12830155Y-14620582D01*
X12830155Y-14620582D02*
X12820631Y-14601534D01*
X12820631Y-14601534D02*
X12801583Y-14592010D01*
X12801583Y-14592010D02*
X12763488Y-14592010D01*
X12763488Y-14592010D02*
X12744441Y-14601534D01*
X12830155Y-14715820D02*
X12811107Y-14725344D01*
X12811107Y-14725344D02*
X12763488Y-14725344D01*
X12763488Y-14725344D02*
X12744441Y-14715820D01*
X12744441Y-14715820D02*
X12734917Y-14696772D01*
X12734917Y-14696772D02*
X12734917Y-14677725D01*
X12734917Y-14677725D02*
X12744441Y-14658677D01*
X12744441Y-14658677D02*
X12763488Y-14649153D01*
X12763488Y-14649153D02*
X12811107Y-14649153D01*
X12811107Y-14649153D02*
X12830155Y-14639630D01*
X12925393Y-14592010D02*
X12925393Y-14792010D01*
X12925393Y-14601534D02*
X12944441Y-14592010D01*
X12944441Y-14592010D02*
X12982536Y-14592010D01*
X12982536Y-14592010D02*
X13001583Y-14601534D01*
X13001583Y-14601534D02*
X13011107Y-14611058D01*
X13011107Y-14611058D02*
X13020631Y-14630106D01*
X13020631Y-14630106D02*
X13020631Y-14687249D01*
X13020631Y-14687249D02*
X13011107Y-14706296D01*
X13011107Y-14706296D02*
X13001583Y-14715820D01*
X13001583Y-14715820D02*
X12982536Y-14725344D01*
X12982536Y-14725344D02*
X12944441Y-14725344D01*
X12944441Y-14725344D02*
X12925393Y-14715820D01*
X13106345Y-14706296D02*
X13115869Y-14715820D01*
X13115869Y-14715820D02*
X13106345Y-14725344D01*
X13106345Y-14725344D02*
X13096822Y-14715820D01*
X13096822Y-14715820D02*
X13106345Y-14706296D01*
X13106345Y-14706296D02*
X13106345Y-14725344D01*
X13106345Y-14601534D02*
X13115869Y-14611058D01*
X13115869Y-14611058D02*
X13106345Y-14620582D01*
X13106345Y-14620582D02*
X13096822Y-14611058D01*
X13096822Y-14611058D02*
X13106345Y-14601534D01*
X13106345Y-14601534D02*
X13106345Y-14620582D01*
D12*
X11409140Y-15021360D02*
X11474140Y-15086360D01*
X11474140Y-15021360D02*
X11409140Y-15086360D01*
D11*
X11773012Y-14945344D02*
X11792060Y-14945344D01*
X11792060Y-14945344D02*
X11811107Y-14954868D01*
X11811107Y-14954868D02*
X11820631Y-14964391D01*
X11820631Y-14964391D02*
X11830155Y-14983439D01*
X11830155Y-14983439D02*
X11839679Y-15021534D01*
X11839679Y-15021534D02*
X11839679Y-15069153D01*
X11839679Y-15069153D02*
X11830155Y-15107249D01*
X11830155Y-15107249D02*
X11820631Y-15126296D01*
X11820631Y-15126296D02*
X11811107Y-15135820D01*
X11811107Y-15135820D02*
X11792060Y-15145344D01*
X11792060Y-15145344D02*
X11773012Y-15145344D01*
X11773012Y-15145344D02*
X11753964Y-15135820D01*
X11753964Y-15135820D02*
X11744441Y-15126296D01*
X11744441Y-15126296D02*
X11734917Y-15107249D01*
X11734917Y-15107249D02*
X11725393Y-15069153D01*
X11725393Y-15069153D02*
X11725393Y-15021534D01*
X11725393Y-15021534D02*
X11734917Y-14983439D01*
X11734917Y-14983439D02*
X11744441Y-14964391D01*
X11744441Y-14964391D02*
X11753964Y-14954868D01*
X11753964Y-14954868D02*
X11773012Y-14945344D01*
X11925393Y-15126296D02*
X11934917Y-15135820D01*
X11934917Y-15135820D02*
X11925393Y-15145344D01*
X11925393Y-15145344D02*
X11915869Y-15135820D01*
X11915869Y-15135820D02*
X11925393Y-15126296D01*
X11925393Y-15126296D02*
X11925393Y-15145344D01*
X12106345Y-14945344D02*
X12068250Y-14945344D01*
X12068250Y-14945344D02*
X12049202Y-14954868D01*
X12049202Y-14954868D02*
X12039679Y-14964391D01*
X12039679Y-14964391D02*
X12020631Y-14992963D01*
X12020631Y-14992963D02*
X12011107Y-15031058D01*
X12011107Y-15031058D02*
X12011107Y-15107249D01*
X12011107Y-15107249D02*
X12020631Y-15126296D01*
X12020631Y-15126296D02*
X12030155Y-15135820D01*
X12030155Y-15135820D02*
X12049202Y-15145344D01*
X12049202Y-15145344D02*
X12087298Y-15145344D01*
X12087298Y-15145344D02*
X12106345Y-15135820D01*
X12106345Y-15135820D02*
X12115869Y-15126296D01*
X12115869Y-15126296D02*
X12125393Y-15107249D01*
X12125393Y-15107249D02*
X12125393Y-15059630D01*
X12125393Y-15059630D02*
X12115869Y-15040582D01*
X12115869Y-15040582D02*
X12106345Y-15031058D01*
X12106345Y-15031058D02*
X12087298Y-15021534D01*
X12087298Y-15021534D02*
X12049202Y-15021534D01*
X12049202Y-15021534D02*
X12030155Y-15031058D01*
X12030155Y-15031058D02*
X12020631Y-15040582D01*
X12020631Y-15040582D02*
X12011107Y-15059630D01*
X12306345Y-14945344D02*
X12211107Y-14945344D01*
X12211107Y-14945344D02*
X12201583Y-15040582D01*
X12201583Y-15040582D02*
X12211107Y-15031058D01*
X12211107Y-15031058D02*
X12230155Y-15021534D01*
X12230155Y-15021534D02*
X12277774Y-15021534D01*
X12277774Y-15021534D02*
X12296822Y-15031058D01*
X12296822Y-15031058D02*
X12306345Y-15040582D01*
X12306345Y-15040582D02*
X12315869Y-15059630D01*
X12315869Y-15059630D02*
X12315869Y-15107249D01*
X12315869Y-15107249D02*
X12306345Y-15126296D01*
X12306345Y-15126296D02*
X12296822Y-15135820D01*
X12296822Y-15135820D02*
X12277774Y-15145344D01*
X12277774Y-15145344D02*
X12230155Y-15145344D01*
X12230155Y-15145344D02*
X12211107Y-15135820D01*
X12211107Y-15135820D02*
X12201583Y-15126296D01*
X12439679Y-14945344D02*
X12458726Y-14945344D01*
X12458726Y-14945344D02*
X12477774Y-14954868D01*
X12477774Y-14954868D02*
X12487298Y-14964391D01*
X12487298Y-14964391D02*
X12496822Y-14983439D01*
X12496822Y-14983439D02*
X12506345Y-15021534D01*
X12506345Y-15021534D02*
X12506345Y-15069153D01*
X12506345Y-15069153D02*
X12496822Y-15107249D01*
X12496822Y-15107249D02*
X12487298Y-15126296D01*
X12487298Y-15126296D02*
X12477774Y-15135820D01*
X12477774Y-15135820D02*
X12458726Y-15145344D01*
X12458726Y-15145344D02*
X12439679Y-15145344D01*
X12439679Y-15145344D02*
X12420631Y-15135820D01*
X12420631Y-15135820D02*
X12411107Y-15126296D01*
X12411107Y-15126296D02*
X12401583Y-15107249D01*
X12401583Y-15107249D02*
X12392060Y-15069153D01*
X12392060Y-15069153D02*
X12392060Y-15021534D01*
X12392060Y-15021534D02*
X12401583Y-14983439D01*
X12401583Y-14983439D02*
X12411107Y-14964391D01*
X12411107Y-14964391D02*
X12420631Y-14954868D01*
X12420631Y-14954868D02*
X12439679Y-14945344D01*
X12592060Y-15145344D02*
X12592060Y-15012010D01*
X12592060Y-15031058D02*
X12601583Y-15021534D01*
X12601583Y-15021534D02*
X12620631Y-15012010D01*
X12620631Y-15012010D02*
X12649203Y-15012010D01*
X12649203Y-15012010D02*
X12668250Y-15021534D01*
X12668250Y-15021534D02*
X12677774Y-15040582D01*
X12677774Y-15040582D02*
X12677774Y-15145344D01*
X12677774Y-15040582D02*
X12687298Y-15021534D01*
X12687298Y-15021534D02*
X12706345Y-15012010D01*
X12706345Y-15012010D02*
X12734917Y-15012010D01*
X12734917Y-15012010D02*
X12753964Y-15021534D01*
X12753964Y-15021534D02*
X12763488Y-15040582D01*
X12763488Y-15040582D02*
X12763488Y-15145344D01*
X12858726Y-15145344D02*
X12858726Y-15012010D01*
X12858726Y-15031058D02*
X12868250Y-15021534D01*
X12868250Y-15021534D02*
X12887298Y-15012010D01*
X12887298Y-15012010D02*
X12915869Y-15012010D01*
X12915869Y-15012010D02*
X12934917Y-15021534D01*
X12934917Y-15021534D02*
X12944441Y-15040582D01*
X12944441Y-15040582D02*
X12944441Y-15145344D01*
X12944441Y-15040582D02*
X12953964Y-15021534D01*
X12953964Y-15021534D02*
X12973012Y-15012010D01*
X12973012Y-15012010D02*
X13001583Y-15012010D01*
X13001583Y-15012010D02*
X13020631Y-15021534D01*
X13020631Y-15021534D02*
X13030155Y-15040582D01*
X13030155Y-15040582D02*
X13030155Y-15145344D01*
X13420631Y-14935820D02*
X13249203Y-15192963D01*
X13677774Y-14945344D02*
X13696822Y-14945344D01*
X13696822Y-14945344D02*
X13715869Y-14954868D01*
X13715869Y-14954868D02*
X13725393Y-14964391D01*
X13725393Y-14964391D02*
X13734917Y-14983439D01*
X13734917Y-14983439D02*
X13744441Y-15021534D01*
X13744441Y-15021534D02*
X13744441Y-15069153D01*
X13744441Y-15069153D02*
X13734917Y-15107249D01*
X13734917Y-15107249D02*
X13725393Y-15126296D01*
X13725393Y-15126296D02*
X13715869Y-15135820D01*
X13715869Y-15135820D02*
X13696822Y-15145344D01*
X13696822Y-15145344D02*
X13677774Y-15145344D01*
X13677774Y-15145344D02*
X13658726Y-15135820D01*
X13658726Y-15135820D02*
X13649203Y-15126296D01*
X13649203Y-15126296D02*
X13639679Y-15107249D01*
X13639679Y-15107249D02*
X13630155Y-15069153D01*
X13630155Y-15069153D02*
X13630155Y-15021534D01*
X13630155Y-15021534D02*
X13639679Y-14983439D01*
X13639679Y-14983439D02*
X13649203Y-14964391D01*
X13649203Y-14964391D02*
X13658726Y-14954868D01*
X13658726Y-14954868D02*
X13677774Y-14945344D01*
X13830155Y-15126296D02*
X13839679Y-15135820D01*
X13839679Y-15135820D02*
X13830155Y-15145344D01*
X13830155Y-15145344D02*
X13820631Y-15135820D01*
X13820631Y-15135820D02*
X13830155Y-15126296D01*
X13830155Y-15126296D02*
X13830155Y-15145344D01*
X13963488Y-14945344D02*
X13982536Y-14945344D01*
X13982536Y-14945344D02*
X14001584Y-14954868D01*
X14001584Y-14954868D02*
X14011107Y-14964391D01*
X14011107Y-14964391D02*
X14020631Y-14983439D01*
X14020631Y-14983439D02*
X14030155Y-15021534D01*
X14030155Y-15021534D02*
X14030155Y-15069153D01*
X14030155Y-15069153D02*
X14020631Y-15107249D01*
X14020631Y-15107249D02*
X14011107Y-15126296D01*
X14011107Y-15126296D02*
X14001584Y-15135820D01*
X14001584Y-15135820D02*
X13982536Y-15145344D01*
X13982536Y-15145344D02*
X13963488Y-15145344D01*
X13963488Y-15145344D02*
X13944441Y-15135820D01*
X13944441Y-15135820D02*
X13934917Y-15126296D01*
X13934917Y-15126296D02*
X13925393Y-15107249D01*
X13925393Y-15107249D02*
X13915869Y-15069153D01*
X13915869Y-15069153D02*
X13915869Y-15021534D01*
X13915869Y-15021534D02*
X13925393Y-14983439D01*
X13925393Y-14983439D02*
X13934917Y-14964391D01*
X13934917Y-14964391D02*
X13944441Y-14954868D01*
X13944441Y-14954868D02*
X13963488Y-14945344D01*
X14106346Y-14964391D02*
X14115869Y-14954868D01*
X14115869Y-14954868D02*
X14134917Y-14945344D01*
X14134917Y-14945344D02*
X14182536Y-14945344D01*
X14182536Y-14945344D02*
X14201584Y-14954868D01*
X14201584Y-14954868D02*
X14211107Y-14964391D01*
X14211107Y-14964391D02*
X14220631Y-14983439D01*
X14220631Y-14983439D02*
X14220631Y-15002487D01*
X14220631Y-15002487D02*
X14211107Y-15031058D01*
X14211107Y-15031058D02*
X14096822Y-15145344D01*
X14096822Y-15145344D02*
X14220631Y-15145344D01*
X14401584Y-14945344D02*
X14306346Y-14945344D01*
X14306346Y-14945344D02*
X14296822Y-15040582D01*
X14296822Y-15040582D02*
X14306346Y-15031058D01*
X14306346Y-15031058D02*
X14325393Y-15021534D01*
X14325393Y-15021534D02*
X14373012Y-15021534D01*
X14373012Y-15021534D02*
X14392060Y-15031058D01*
X14392060Y-15031058D02*
X14401584Y-15040582D01*
X14401584Y-15040582D02*
X14411107Y-15059630D01*
X14411107Y-15059630D02*
X14411107Y-15107249D01*
X14411107Y-15107249D02*
X14401584Y-15126296D01*
X14401584Y-15126296D02*
X14392060Y-15135820D01*
X14392060Y-15135820D02*
X14373012Y-15145344D01*
X14373012Y-15145344D02*
X14325393Y-15145344D01*
X14325393Y-15145344D02*
X14306346Y-15135820D01*
X14306346Y-15135820D02*
X14296822Y-15126296D01*
X14582536Y-14945344D02*
X14544441Y-14945344D01*
X14544441Y-14945344D02*
X14525393Y-14954868D01*
X14525393Y-14954868D02*
X14515869Y-14964391D01*
X14515869Y-14964391D02*
X14496822Y-14992963D01*
X14496822Y-14992963D02*
X14487298Y-15031058D01*
X14487298Y-15031058D02*
X14487298Y-15107249D01*
X14487298Y-15107249D02*
X14496822Y-15126296D01*
X14496822Y-15126296D02*
X14506346Y-15135820D01*
X14506346Y-15135820D02*
X14525393Y-15145344D01*
X14525393Y-15145344D02*
X14563488Y-15145344D01*
X14563488Y-15145344D02*
X14582536Y-15135820D01*
X14582536Y-15135820D02*
X14592060Y-15126296D01*
X14592060Y-15126296D02*
X14601584Y-15107249D01*
X14601584Y-15107249D02*
X14601584Y-15059630D01*
X14601584Y-15059630D02*
X14592060Y-15040582D01*
X14592060Y-15040582D02*
X14582536Y-15031058D01*
X14582536Y-15031058D02*
X14563488Y-15021534D01*
X14563488Y-15021534D02*
X14525393Y-15021534D01*
X14525393Y-15021534D02*
X14506346Y-15031058D01*
X14506346Y-15031058D02*
X14496822Y-15040582D01*
X14496822Y-15040582D02*
X14487298Y-15059630D01*
X14677774Y-14945344D02*
X14677774Y-14983439D01*
X14753965Y-14945344D02*
X14753965Y-14983439D01*
X15049203Y-15221534D02*
X15039679Y-15212010D01*
X15039679Y-15212010D02*
X15020631Y-15183439D01*
X15020631Y-15183439D02*
X15011108Y-15164391D01*
X15011108Y-15164391D02*
X15001584Y-15135820D01*
X15001584Y-15135820D02*
X14992060Y-15088201D01*
X14992060Y-15088201D02*
X14992060Y-15050106D01*
X14992060Y-15050106D02*
X15001584Y-15002487D01*
X15001584Y-15002487D02*
X15011108Y-14973915D01*
X15011108Y-14973915D02*
X15020631Y-14954868D01*
X15020631Y-14954868D02*
X15039679Y-14926296D01*
X15039679Y-14926296D02*
X15049203Y-14916772D01*
X15230155Y-15145344D02*
X15115869Y-15145344D01*
X15173012Y-15145344D02*
X15173012Y-14945344D01*
X15173012Y-14945344D02*
X15153965Y-14973915D01*
X15153965Y-14973915D02*
X15134917Y-14992963D01*
X15134917Y-14992963D02*
X15115869Y-15002487D01*
X15468250Y-15145344D02*
X15468250Y-14945344D01*
X15553965Y-15145344D02*
X15553965Y-15040582D01*
X15553965Y-15040582D02*
X15544441Y-15021534D01*
X15544441Y-15021534D02*
X15525393Y-15012010D01*
X15525393Y-15012010D02*
X15496822Y-15012010D01*
X15496822Y-15012010D02*
X15477774Y-15021534D01*
X15477774Y-15021534D02*
X15468250Y-15031058D01*
X15677774Y-15145344D02*
X15658727Y-15135820D01*
X15658727Y-15135820D02*
X15649203Y-15126296D01*
X15649203Y-15126296D02*
X15639679Y-15107249D01*
X15639679Y-15107249D02*
X15639679Y-15050106D01*
X15639679Y-15050106D02*
X15649203Y-15031058D01*
X15649203Y-15031058D02*
X15658727Y-15021534D01*
X15658727Y-15021534D02*
X15677774Y-15012010D01*
X15677774Y-15012010D02*
X15706346Y-15012010D01*
X15706346Y-15012010D02*
X15725393Y-15021534D01*
X15725393Y-15021534D02*
X15734917Y-15031058D01*
X15734917Y-15031058D02*
X15744441Y-15050106D01*
X15744441Y-15050106D02*
X15744441Y-15107249D01*
X15744441Y-15107249D02*
X15734917Y-15126296D01*
X15734917Y-15126296D02*
X15725393Y-15135820D01*
X15725393Y-15135820D02*
X15706346Y-15145344D01*
X15706346Y-15145344D02*
X15677774Y-15145344D01*
X15858727Y-15145344D02*
X15839679Y-15135820D01*
X15839679Y-15135820D02*
X15830155Y-15116772D01*
X15830155Y-15116772D02*
X15830155Y-14945344D01*
X16011108Y-15135820D02*
X15992060Y-15145344D01*
X15992060Y-15145344D02*
X15953965Y-15145344D01*
X15953965Y-15145344D02*
X15934917Y-15135820D01*
X15934917Y-15135820D02*
X15925393Y-15116772D01*
X15925393Y-15116772D02*
X15925393Y-15040582D01*
X15925393Y-15040582D02*
X15934917Y-15021534D01*
X15934917Y-15021534D02*
X15953965Y-15012010D01*
X15953965Y-15012010D02*
X15992060Y-15012010D01*
X15992060Y-15012010D02*
X16011108Y-15021534D01*
X16011108Y-15021534D02*
X16020631Y-15040582D01*
X16020631Y-15040582D02*
X16020631Y-15059630D01*
X16020631Y-15059630D02*
X15925393Y-15078677D01*
X16096822Y-15135820D02*
X16115870Y-15145344D01*
X16115870Y-15145344D02*
X16153965Y-15145344D01*
X16153965Y-15145344D02*
X16173012Y-15135820D01*
X16173012Y-15135820D02*
X16182536Y-15116772D01*
X16182536Y-15116772D02*
X16182536Y-15107249D01*
X16182536Y-15107249D02*
X16173012Y-15088201D01*
X16173012Y-15088201D02*
X16153965Y-15078677D01*
X16153965Y-15078677D02*
X16125393Y-15078677D01*
X16125393Y-15078677D02*
X16106346Y-15069153D01*
X16106346Y-15069153D02*
X16096822Y-15050106D01*
X16096822Y-15050106D02*
X16096822Y-15040582D01*
X16096822Y-15040582D02*
X16106346Y-15021534D01*
X16106346Y-15021534D02*
X16125393Y-15012010D01*
X16125393Y-15012010D02*
X16153965Y-15012010D01*
X16153965Y-15012010D02*
X16173012Y-15021534D01*
X16420632Y-15069153D02*
X16573013Y-15069153D01*
X16496822Y-15145344D02*
X16496822Y-14992963D01*
X16925394Y-15145344D02*
X16811108Y-15145344D01*
X16868251Y-15145344D02*
X16868251Y-14945344D01*
X16868251Y-14945344D02*
X16849203Y-14973915D01*
X16849203Y-14973915D02*
X16830155Y-14992963D01*
X16830155Y-14992963D02*
X16811108Y-15002487D01*
X17153965Y-15135820D02*
X17173013Y-15145344D01*
X17173013Y-15145344D02*
X17211108Y-15145344D01*
X17211108Y-15145344D02*
X17230156Y-15135820D01*
X17230156Y-15135820D02*
X17239679Y-15116772D01*
X17239679Y-15116772D02*
X17239679Y-15107249D01*
X17239679Y-15107249D02*
X17230156Y-15088201D01*
X17230156Y-15088201D02*
X17211108Y-15078677D01*
X17211108Y-15078677D02*
X17182536Y-15078677D01*
X17182536Y-15078677D02*
X17163489Y-15069153D01*
X17163489Y-15069153D02*
X17153965Y-15050106D01*
X17153965Y-15050106D02*
X17153965Y-15040582D01*
X17153965Y-15040582D02*
X17163489Y-15021534D01*
X17163489Y-15021534D02*
X17182536Y-15012010D01*
X17182536Y-15012010D02*
X17211108Y-15012010D01*
X17211108Y-15012010D02*
X17230156Y-15021534D01*
X17353965Y-15145344D02*
X17334917Y-15135820D01*
X17334917Y-15135820D02*
X17325394Y-15116772D01*
X17325394Y-15116772D02*
X17325394Y-14945344D01*
X17458727Y-15145344D02*
X17439679Y-15135820D01*
X17439679Y-15135820D02*
X17430156Y-15126296D01*
X17430156Y-15126296D02*
X17420632Y-15107249D01*
X17420632Y-15107249D02*
X17420632Y-15050106D01*
X17420632Y-15050106D02*
X17430156Y-15031058D01*
X17430156Y-15031058D02*
X17439679Y-15021534D01*
X17439679Y-15021534D02*
X17458727Y-15012010D01*
X17458727Y-15012010D02*
X17487298Y-15012010D01*
X17487298Y-15012010D02*
X17506346Y-15021534D01*
X17506346Y-15021534D02*
X17515870Y-15031058D01*
X17515870Y-15031058D02*
X17525394Y-15050106D01*
X17525394Y-15050106D02*
X17525394Y-15107249D01*
X17525394Y-15107249D02*
X17515870Y-15126296D01*
X17515870Y-15126296D02*
X17506346Y-15135820D01*
X17506346Y-15135820D02*
X17487298Y-15145344D01*
X17487298Y-15145344D02*
X17458727Y-15145344D01*
X17582537Y-15012010D02*
X17658727Y-15012010D01*
X17611108Y-14945344D02*
X17611108Y-15116772D01*
X17611108Y-15116772D02*
X17620632Y-15135820D01*
X17620632Y-15135820D02*
X17639679Y-15145344D01*
X17639679Y-15145344D02*
X17658727Y-15145344D01*
X17706346Y-15221534D02*
X17715870Y-15212010D01*
X17715870Y-15212010D02*
X17734917Y-15183439D01*
X17734917Y-15183439D02*
X17744441Y-15164391D01*
X17744441Y-15164391D02*
X17753965Y-15135820D01*
X17753965Y-15135820D02*
X17763489Y-15088201D01*
X17763489Y-15088201D02*
X17763489Y-15050106D01*
X17763489Y-15050106D02*
X17753965Y-15002487D01*
X17753965Y-15002487D02*
X17744441Y-14973915D01*
X17744441Y-14973915D02*
X17734917Y-14954868D01*
X17734917Y-14954868D02*
X17715870Y-14926296D01*
X17715870Y-14926296D02*
X17706346Y-14916772D01*
X18068251Y-15221534D02*
X18058727Y-15212010D01*
X18058727Y-15212010D02*
X18039679Y-15183439D01*
X18039679Y-15183439D02*
X18030156Y-15164391D01*
X18030156Y-15164391D02*
X18020632Y-15135820D01*
X18020632Y-15135820D02*
X18011108Y-15088201D01*
X18011108Y-15088201D02*
X18011108Y-15050106D01*
X18011108Y-15050106D02*
X18020632Y-15002487D01*
X18020632Y-15002487D02*
X18030156Y-14973915D01*
X18030156Y-14973915D02*
X18039679Y-14954868D01*
X18039679Y-14954868D02*
X18058727Y-14926296D01*
X18058727Y-14926296D02*
X18068251Y-14916772D01*
X18144441Y-15012010D02*
X18144441Y-15145344D01*
X18144441Y-15031058D02*
X18153965Y-15021534D01*
X18153965Y-15021534D02*
X18173013Y-15012010D01*
X18173013Y-15012010D02*
X18201584Y-15012010D01*
X18201584Y-15012010D02*
X18220632Y-15021534D01*
X18220632Y-15021534D02*
X18230156Y-15040582D01*
X18230156Y-15040582D02*
X18230156Y-15145344D01*
X18353965Y-15145344D02*
X18334917Y-15135820D01*
X18334917Y-15135820D02*
X18325394Y-15126296D01*
X18325394Y-15126296D02*
X18315870Y-15107249D01*
X18315870Y-15107249D02*
X18315870Y-15050106D01*
X18315870Y-15050106D02*
X18325394Y-15031058D01*
X18325394Y-15031058D02*
X18334917Y-15021534D01*
X18334917Y-15021534D02*
X18353965Y-15012010D01*
X18353965Y-15012010D02*
X18382537Y-15012010D01*
X18382537Y-15012010D02*
X18401584Y-15021534D01*
X18401584Y-15021534D02*
X18411108Y-15031058D01*
X18411108Y-15031058D02*
X18420632Y-15050106D01*
X18420632Y-15050106D02*
X18420632Y-15107249D01*
X18420632Y-15107249D02*
X18411108Y-15126296D01*
X18411108Y-15126296D02*
X18401584Y-15135820D01*
X18401584Y-15135820D02*
X18382537Y-15145344D01*
X18382537Y-15145344D02*
X18353965Y-15145344D01*
X18477775Y-15012010D02*
X18553965Y-15012010D01*
X18506346Y-14945344D02*
X18506346Y-15116772D01*
X18506346Y-15116772D02*
X18515870Y-15135820D01*
X18515870Y-15135820D02*
X18534917Y-15145344D01*
X18534917Y-15145344D02*
X18553965Y-15145344D01*
X18773013Y-15012010D02*
X18773013Y-15212010D01*
X18773013Y-15021534D02*
X18792060Y-15012010D01*
X18792060Y-15012010D02*
X18830156Y-15012010D01*
X18830156Y-15012010D02*
X18849203Y-15021534D01*
X18849203Y-15021534D02*
X18858727Y-15031058D01*
X18858727Y-15031058D02*
X18868251Y-15050106D01*
X18868251Y-15050106D02*
X18868251Y-15107249D01*
X18868251Y-15107249D02*
X18858727Y-15126296D01*
X18858727Y-15126296D02*
X18849203Y-15135820D01*
X18849203Y-15135820D02*
X18830156Y-15145344D01*
X18830156Y-15145344D02*
X18792060Y-15145344D01*
X18792060Y-15145344D02*
X18773013Y-15135820D01*
X18982537Y-15145344D02*
X18963489Y-15135820D01*
X18963489Y-15135820D02*
X18953965Y-15116772D01*
X18953965Y-15116772D02*
X18953965Y-14945344D01*
X19144441Y-15145344D02*
X19144441Y-15040582D01*
X19144441Y-15040582D02*
X19134918Y-15021534D01*
X19134918Y-15021534D02*
X19115870Y-15012010D01*
X19115870Y-15012010D02*
X19077775Y-15012010D01*
X19077775Y-15012010D02*
X19058727Y-15021534D01*
X19144441Y-15135820D02*
X19125394Y-15145344D01*
X19125394Y-15145344D02*
X19077775Y-15145344D01*
X19077775Y-15145344D02*
X19058727Y-15135820D01*
X19058727Y-15135820D02*
X19049203Y-15116772D01*
X19049203Y-15116772D02*
X19049203Y-15097725D01*
X19049203Y-15097725D02*
X19058727Y-15078677D01*
X19058727Y-15078677D02*
X19077775Y-15069153D01*
X19077775Y-15069153D02*
X19125394Y-15069153D01*
X19125394Y-15069153D02*
X19144441Y-15059630D01*
X19211108Y-15012010D02*
X19287298Y-15012010D01*
X19239679Y-14945344D02*
X19239679Y-15116772D01*
X19239679Y-15116772D02*
X19249203Y-15135820D01*
X19249203Y-15135820D02*
X19268251Y-15145344D01*
X19268251Y-15145344D02*
X19287298Y-15145344D01*
X19430156Y-15135820D02*
X19411108Y-15145344D01*
X19411108Y-15145344D02*
X19373013Y-15145344D01*
X19373013Y-15145344D02*
X19353965Y-15135820D01*
X19353965Y-15135820D02*
X19344441Y-15116772D01*
X19344441Y-15116772D02*
X19344441Y-15040582D01*
X19344441Y-15040582D02*
X19353965Y-15021534D01*
X19353965Y-15021534D02*
X19373013Y-15012010D01*
X19373013Y-15012010D02*
X19411108Y-15012010D01*
X19411108Y-15012010D02*
X19430156Y-15021534D01*
X19430156Y-15021534D02*
X19439679Y-15040582D01*
X19439679Y-15040582D02*
X19439679Y-15059630D01*
X19439679Y-15059630D02*
X19344441Y-15078677D01*
X19611108Y-15145344D02*
X19611108Y-14945344D01*
X19611108Y-15135820D02*
X19592060Y-15145344D01*
X19592060Y-15145344D02*
X19553965Y-15145344D01*
X19553965Y-15145344D02*
X19534918Y-15135820D01*
X19534918Y-15135820D02*
X19525394Y-15126296D01*
X19525394Y-15126296D02*
X19515870Y-15107249D01*
X19515870Y-15107249D02*
X19515870Y-15050106D01*
X19515870Y-15050106D02*
X19525394Y-15031058D01*
X19525394Y-15031058D02*
X19534918Y-15021534D01*
X19534918Y-15021534D02*
X19553965Y-15012010D01*
X19553965Y-15012010D02*
X19592060Y-15012010D01*
X19592060Y-15012010D02*
X19611108Y-15021534D01*
X19687299Y-15221534D02*
X19696822Y-15212010D01*
X19696822Y-15212010D02*
X19715870Y-15183439D01*
X19715870Y-15183439D02*
X19725394Y-15164391D01*
X19725394Y-15164391D02*
X19734918Y-15135820D01*
X19734918Y-15135820D02*
X19744441Y-15088201D01*
X19744441Y-15088201D02*
X19744441Y-15050106D01*
X19744441Y-15050106D02*
X19734918Y-15002487D01*
X19734918Y-15002487D02*
X19725394Y-14973915D01*
X19725394Y-14973915D02*
X19715870Y-14954868D01*
X19715870Y-14954868D02*
X19696822Y-14926296D01*
X19696822Y-14926296D02*
X19687299Y-14916772D01*
M02*
