%TF.GenerationSoftware,KiCad,Pcbnew,8.0.6-8.0.6-0~ubuntu22.04.1*%
%TF.CreationDate,2024-12-08T13:20:39-05:00*%
%TF.ProjectId,badge,62616467-652e-46b6-9963-61645f706362,rev?*%
%TF.SameCoordinates,Original*%
%TF.FileFunction,Legend,Top*%
%TF.FilePolarity,Positive*%
%FSLAX46Y46*%
G04 Gerber Fmt 4.6, Leading zero omitted, Abs format (unit mm)*
G04 Created by KiCad (PCBNEW 8.0.6-8.0.6-0~ubuntu22.04.1) date 2024-12-08 13:20:39*
%MOMM*%
%LPD*%
G01*
G04 APERTURE LIST*
%ADD10C,0.100000*%
%ADD11C,0.150000*%
%ADD12C,0.120000*%
%ADD13C,0.000000*%
G04 APERTURE END LIST*
D10*
X119000000Y-72500000D02*
X184000000Y-72500000D01*
X184000000Y-104500000D01*
X119000000Y-104500000D01*
X119000000Y-72500000D01*
D11*
X179171219Y-111155266D02*
X179171219Y-111631456D01*
X179171219Y-111631456D02*
X178171219Y-111631456D01*
X179171219Y-110298123D02*
X179171219Y-110869551D01*
X179171219Y-110583837D02*
X178171219Y-110583837D01*
X178171219Y-110583837D02*
X178314076Y-110679075D01*
X178314076Y-110679075D02*
X178409314Y-110774313D01*
X178409314Y-110774313D02*
X178456933Y-110869551D01*
X124261219Y-132946933D02*
X124975504Y-132946933D01*
X124975504Y-132946933D02*
X125118361Y-132994552D01*
X125118361Y-132994552D02*
X125213600Y-133089790D01*
X125213600Y-133089790D02*
X125261219Y-133232647D01*
X125261219Y-133232647D02*
X125261219Y-133327885D01*
X125261219Y-131946933D02*
X125261219Y-132518361D01*
X125261219Y-132232647D02*
X124261219Y-132232647D01*
X124261219Y-132232647D02*
X124404076Y-132327885D01*
X124404076Y-132327885D02*
X124499314Y-132423123D01*
X124499314Y-132423123D02*
X124546933Y-132518361D01*
X183221219Y-111321933D02*
X183935504Y-111321933D01*
X183935504Y-111321933D02*
X184078361Y-111369552D01*
X184078361Y-111369552D02*
X184173600Y-111464790D01*
X184173600Y-111464790D02*
X184221219Y-111607647D01*
X184221219Y-111607647D02*
X184221219Y-111702885D01*
X183221219Y-110940980D02*
X183221219Y-110321933D01*
X183221219Y-110321933D02*
X183602171Y-110655266D01*
X183602171Y-110655266D02*
X183602171Y-110512409D01*
X183602171Y-110512409D02*
X183649790Y-110417171D01*
X183649790Y-110417171D02*
X183697409Y-110369552D01*
X183697409Y-110369552D02*
X183792647Y-110321933D01*
X183792647Y-110321933D02*
X184030742Y-110321933D01*
X184030742Y-110321933D02*
X184125980Y-110369552D01*
X184125980Y-110369552D02*
X184173600Y-110417171D01*
X184173600Y-110417171D02*
X184221219Y-110512409D01*
X184221219Y-110512409D02*
X184221219Y-110798123D01*
X184221219Y-110798123D02*
X184173600Y-110893361D01*
X184173600Y-110893361D02*
X184125980Y-110940980D01*
X188721219Y-111446933D02*
X189435504Y-111446933D01*
X189435504Y-111446933D02*
X189578361Y-111494552D01*
X189578361Y-111494552D02*
X189673600Y-111589790D01*
X189673600Y-111589790D02*
X189721219Y-111732647D01*
X189721219Y-111732647D02*
X189721219Y-111827885D01*
X188816457Y-111018361D02*
X188768838Y-110970742D01*
X188768838Y-110970742D02*
X188721219Y-110875504D01*
X188721219Y-110875504D02*
X188721219Y-110637409D01*
X188721219Y-110637409D02*
X188768838Y-110542171D01*
X188768838Y-110542171D02*
X188816457Y-110494552D01*
X188816457Y-110494552D02*
X188911695Y-110446933D01*
X188911695Y-110446933D02*
X189006933Y-110446933D01*
X189006933Y-110446933D02*
X189149790Y-110494552D01*
X189149790Y-110494552D02*
X189721219Y-111065980D01*
X189721219Y-111065980D02*
X189721219Y-110446933D01*
D12*
%TO.C,L1*%
X174656400Y-110923600D02*
X174656400Y-110008093D01*
X175006400Y-112923600D02*
X175006400Y-110923600D01*
X175426400Y-110923600D02*
X175426400Y-112923600D01*
X175426400Y-112923600D02*
X175006400Y-112923600D01*
X175716400Y-110081815D02*
X175716400Y-110923600D01*
X176006400Y-112923600D02*
X176006400Y-110923600D01*
X176426400Y-110923600D02*
X176426400Y-112923600D01*
X176426400Y-112923600D02*
X176006400Y-112923600D01*
X176716400Y-110298600D02*
X176716400Y-110923600D01*
X177006400Y-112923600D02*
X177006400Y-110923600D01*
X177126400Y-110923600D02*
X177126400Y-112923600D01*
X177216400Y-108928600D02*
X177901400Y-108928600D01*
X177246400Y-110923600D02*
X177246400Y-112923600D01*
X177366400Y-110923600D02*
X177366400Y-112923600D01*
X177426400Y-110923600D02*
X177426400Y-112923600D01*
X177426400Y-112923600D02*
X177006400Y-112923600D01*
X177776400Y-110298600D02*
X177776400Y-110923600D01*
X177776400Y-110923600D02*
X174656400Y-110923600D01*
X177901400Y-108928600D02*
X177901400Y-109613600D01*
D13*
%TO.C,G\u002A\u002A\u002A*%
G36*
X141834647Y-131439901D02*
G01*
X141813793Y-131460755D01*
X141792939Y-131439901D01*
X141813793Y-131419047D01*
X141834647Y-131439901D01*
G37*
G36*
X136806505Y-127434343D02*
G01*
X136894014Y-127470094D01*
X137049687Y-127584864D01*
X137152161Y-127742931D01*
X137199713Y-127924866D01*
X137190618Y-128111240D01*
X137123150Y-128282625D01*
X136995585Y-128419591D01*
X136979297Y-128430752D01*
X136867570Y-128476182D01*
X136728636Y-128498908D01*
X136705452Y-128499507D01*
X136573634Y-128483465D01*
X136460264Y-128423928D01*
X136387068Y-128362524D01*
X136265479Y-128202304D01*
X136211766Y-128021056D01*
X136222105Y-127836808D01*
X136237038Y-127800998D01*
X136799365Y-127800998D01*
X136829406Y-127852659D01*
X136903782Y-127901718D01*
X136965672Y-127875112D01*
X136989207Y-127818174D01*
X136969896Y-127749988D01*
X136905410Y-127715552D01*
X136832200Y-127731424D01*
X136820343Y-127741462D01*
X136799365Y-127800998D01*
X136237038Y-127800998D01*
X136292673Y-127667588D01*
X136419645Y-127531422D01*
X136580277Y-127451646D01*
X136706622Y-127423501D01*
X136806505Y-127434343D01*
G37*
G36*
X141047578Y-127450143D02*
G01*
X141219932Y-127546312D01*
X141340534Y-127691619D01*
X141357518Y-127727488D01*
X141409571Y-127898048D01*
X141403150Y-128047996D01*
X141349866Y-128191644D01*
X141229316Y-128363307D01*
X141067707Y-128474761D01*
X140881775Y-128517772D01*
X140727826Y-128497684D01*
X140616137Y-128442361D01*
X140500023Y-128353135D01*
X140477579Y-128331041D01*
X140406415Y-128246189D01*
X140369220Y-128161373D01*
X140355442Y-128044172D01*
X140354023Y-127951363D01*
X140357913Y-127806879D01*
X140359106Y-127801359D01*
X140927781Y-127801359D01*
X140955260Y-127848791D01*
X141025819Y-127888791D01*
X141094560Y-127871446D01*
X141125615Y-127805859D01*
X141125615Y-127805559D01*
X141092411Y-127740979D01*
X141019843Y-127715008D01*
X140949407Y-127741462D01*
X140927781Y-127801359D01*
X140359106Y-127801359D01*
X140378134Y-127713349D01*
X140427508Y-127638388D01*
X140509814Y-127557879D01*
X140627209Y-127465141D01*
X140735449Y-127423347D01*
X140843476Y-127415262D01*
X141047578Y-127450143D01*
G37*
G36*
X138891724Y-128074181D02*
G01*
X139041161Y-128111383D01*
X139114397Y-128140209D01*
X139252263Y-128249867D01*
X139337541Y-128397019D01*
X139357055Y-128556792D01*
X139351827Y-128588432D01*
X139286979Y-128727467D01*
X139166251Y-128866539D01*
X139013875Y-128982430D01*
X138873804Y-129046514D01*
X138764598Y-129088233D01*
X138716197Y-129139187D01*
X138706568Y-129205294D01*
X138728825Y-129292317D01*
X138806409Y-129372042D01*
X138873399Y-129417077D01*
X138990955Y-129507562D01*
X139039420Y-129585388D01*
X139017750Y-129641475D01*
X138924896Y-129666745D01*
X138902224Y-129667323D01*
X138780024Y-129649826D01*
X138684360Y-129608929D01*
X138611233Y-129571804D01*
X138542192Y-129594795D01*
X138521131Y-129608929D01*
X138417346Y-129653386D01*
X138301634Y-129665287D01*
X138208744Y-129643632D01*
X138180955Y-129618712D01*
X138192602Y-129568839D01*
X138249214Y-129496500D01*
X138326569Y-129425823D01*
X138400444Y-129380938D01*
X138425041Y-129375576D01*
X138445827Y-129338950D01*
X138454482Y-129250024D01*
X138454428Y-129239819D01*
X138445087Y-129157948D01*
X138407408Y-129099253D01*
X138322701Y-129043084D01*
X138237401Y-129000000D01*
X138035831Y-128872754D01*
X137909514Y-128730287D01*
X137853844Y-128581481D01*
X137864217Y-128435215D01*
X137896001Y-128375529D01*
X138045456Y-128375529D01*
X138080323Y-128425658D01*
X138101192Y-128441654D01*
X138214781Y-128477565D01*
X138340694Y-128444508D01*
X138409122Y-128394764D01*
X138444029Y-128328904D01*
X138437941Y-128294971D01*
X138373418Y-128258531D01*
X138267892Y-128250923D01*
X138157809Y-128269988D01*
X138079612Y-128313568D01*
X138077206Y-128316336D01*
X138045456Y-128375529D01*
X137896001Y-128375529D01*
X137936026Y-128300369D01*
X138064667Y-128185825D01*
X138245535Y-128100463D01*
X138474024Y-128053163D01*
X138729306Y-128051436D01*
X138891724Y-128074181D01*
G37*
G36*
X136346138Y-131578564D02*
G01*
X136409233Y-131667834D01*
X136471740Y-131777193D01*
X136541830Y-131905250D01*
X136598529Y-131971878D01*
X136666939Y-131989653D01*
X136772160Y-131971147D01*
X136829721Y-131956522D01*
X136869973Y-131971618D01*
X136889082Y-132047336D01*
X136887373Y-132189932D01*
X136865168Y-132405659D01*
X136856395Y-132472167D01*
X136844279Y-132600064D01*
X136846249Y-132686678D01*
X136858000Y-132711001D01*
X136900519Y-132679602D01*
X136971154Y-132600547D01*
X137017050Y-132541416D01*
X137141819Y-132372818D01*
X137230784Y-132484390D01*
X137298112Y-132554860D01*
X137369259Y-132579054D01*
X137481210Y-132568662D01*
X137491812Y-132566894D01*
X137599805Y-132554358D01*
X137653148Y-132573416D01*
X137660495Y-132639013D01*
X137630504Y-132766094D01*
X137622822Y-132793117D01*
X137602406Y-132907104D01*
X137626346Y-132983033D01*
X137643676Y-133004665D01*
X137693849Y-133080347D01*
X137705583Y-133121733D01*
X137675166Y-133168271D01*
X137593834Y-133251426D01*
X137476461Y-133356538D01*
X137417224Y-133405971D01*
X137279328Y-133521187D01*
X137195746Y-133601566D01*
X137154789Y-133663274D01*
X137144766Y-133722480D01*
X137150494Y-133774834D01*
X137172124Y-133908122D01*
X136852068Y-133857913D01*
X136532012Y-133807705D01*
X136545316Y-133998997D01*
X136546726Y-134124342D01*
X136525178Y-134186916D01*
X136494025Y-134203318D01*
X136419974Y-134198741D01*
X136400183Y-134187101D01*
X136381224Y-134129758D01*
X136371342Y-134024930D01*
X136370936Y-133997975D01*
X136365838Y-133894164D01*
X136336716Y-133849620D01*
X136262828Y-133840256D01*
X136235386Y-133840581D01*
X136108882Y-133849175D01*
X135953458Y-133867763D01*
X135899234Y-133876055D01*
X135698633Y-133909042D01*
X135711238Y-133788876D01*
X135707941Y-133715913D01*
X135672560Y-133645745D01*
X135592222Y-133559689D01*
X135492841Y-133471875D01*
X135361939Y-133362455D01*
X135241851Y-133265681D01*
X135159491Y-133203178D01*
X135091039Y-133149912D01*
X135086946Y-133113564D01*
X135138670Y-133067213D01*
X135186630Y-133019503D01*
X135200008Y-132961323D01*
X135182448Y-132863321D01*
X135169951Y-132815242D01*
X135133054Y-132668129D01*
X135126588Y-132585881D01*
X135158679Y-132552988D01*
X135237453Y-132553937D01*
X135302065Y-132563031D01*
X135417516Y-132575423D01*
X135476388Y-132562348D01*
X135503448Y-132516806D01*
X135506699Y-132505205D01*
X135543255Y-132433794D01*
X135600305Y-132435287D01*
X135683161Y-132511147D01*
X135727294Y-132566010D01*
X135816503Y-132662929D01*
X135890588Y-132709210D01*
X135936457Y-132701585D01*
X135941013Y-132636786D01*
X135936246Y-132618144D01*
X135897413Y-132470733D01*
X135861102Y-132309005D01*
X135831531Y-132155373D01*
X135812921Y-132032249D01*
X135809492Y-131962046D01*
X135811471Y-131955440D01*
X135860182Y-131944964D01*
X135943668Y-131965302D01*
X136035382Y-131980319D01*
X136106662Y-131938890D01*
X136167379Y-131831306D01*
X136211916Y-131701375D01*
X136252248Y-131601578D01*
X136294416Y-131547473D01*
X136304549Y-131544270D01*
X136346138Y-131578564D01*
G37*
G36*
X141104762Y-122094617D02*
G01*
X141579372Y-122133755D01*
X141996976Y-122220057D01*
X142353343Y-122352146D01*
X142644238Y-122528640D01*
X142767273Y-122636556D01*
X142853169Y-122752118D01*
X142942053Y-122931547D01*
X143035019Y-123178255D01*
X143133162Y-123495654D01*
X143237577Y-123887156D01*
X143349357Y-124356173D01*
X143418388Y-124666874D01*
X143457633Y-124847146D01*
X143491987Y-125004295D01*
X143516360Y-125115065D01*
X143523320Y-125146265D01*
X143547146Y-125193373D01*
X143604906Y-125231150D01*
X143712770Y-125266749D01*
X143886907Y-125307322D01*
X143887991Y-125307553D01*
X144339332Y-125417367D01*
X144725387Y-125539246D01*
X145043709Y-125671384D01*
X145291850Y-125811981D01*
X145467364Y-125959232D01*
X145567801Y-126111335D01*
X145590715Y-126266486D01*
X145533659Y-126422882D01*
X145487451Y-126485914D01*
X145354347Y-126599305D01*
X145152952Y-126712485D01*
X144898227Y-126820004D01*
X144605132Y-126916413D01*
X144288628Y-126996264D01*
X143963674Y-127054106D01*
X143907107Y-127061552D01*
X143770726Y-127082506D01*
X143702169Y-127106425D01*
X143685945Y-127140337D01*
X143691125Y-127159551D01*
X143709365Y-127221281D01*
X143743173Y-127349166D01*
X143788724Y-127528230D01*
X143842194Y-127743498D01*
X143884199Y-127915599D01*
X143974120Y-128277443D01*
X144055905Y-128588041D01*
X144127628Y-128840796D01*
X144187361Y-129029108D01*
X144233179Y-129146382D01*
X144253466Y-129180209D01*
X144285830Y-129162140D01*
X144345609Y-129084593D01*
X144422079Y-128962281D01*
X144444867Y-128921919D01*
X146130542Y-128921919D01*
X146131802Y-128938497D01*
X146143226Y-128946963D01*
X146176278Y-128944467D01*
X146242422Y-128928162D01*
X146353124Y-128895198D01*
X146519847Y-128842728D01*
X146754056Y-128767903D01*
X146766584Y-128763895D01*
X146945073Y-128703663D01*
X147089856Y-128648852D01*
X147184979Y-128605904D01*
X147214942Y-128582829D01*
X147179775Y-128571253D01*
X147090787Y-128585249D01*
X147037684Y-128599899D01*
X146914943Y-128637779D01*
X146743588Y-128690670D01*
X146554709Y-128748975D01*
X146495484Y-128767259D01*
X146335515Y-128820921D01*
X146211198Y-128870762D01*
X146140349Y-128909231D01*
X146130542Y-128921919D01*
X144444867Y-128921919D01*
X144455626Y-128902864D01*
X144682844Y-128534853D01*
X147430934Y-128534853D01*
X147482854Y-128536866D01*
X147604984Y-128508656D01*
X147800129Y-128449670D01*
X147923870Y-128409159D01*
X148083817Y-128352799D01*
X148202570Y-128304949D01*
X148266017Y-128271692D01*
X148269553Y-128260204D01*
X148208212Y-128264414D01*
X148090701Y-128289822D01*
X147939485Y-128329797D01*
X147777029Y-128377706D01*
X147625799Y-128426920D01*
X147508261Y-128470806D01*
X147446881Y-128502734D01*
X147446420Y-128503167D01*
X147430934Y-128534853D01*
X144682844Y-128534853D01*
X144730705Y-128457336D01*
X145041583Y-128052711D01*
X145350414Y-127727914D01*
X146172249Y-127727914D01*
X146193103Y-127748768D01*
X146213957Y-127727914D01*
X146193103Y-127707060D01*
X146172249Y-127727914D01*
X145350414Y-127727914D01*
X145379204Y-127697636D01*
X145392883Y-127686207D01*
X146255665Y-127686207D01*
X146276519Y-127707060D01*
X146297372Y-127686207D01*
X146276519Y-127665353D01*
X146255665Y-127686207D01*
X145392883Y-127686207D01*
X145422628Y-127661354D01*
X146356517Y-127661354D01*
X146367646Y-127663078D01*
X146439801Y-127650238D01*
X146534477Y-127618695D01*
X146645891Y-127579820D01*
X146792658Y-127535159D01*
X146860427Y-127516363D01*
X147068965Y-127460689D01*
X146881281Y-127484734D01*
X146779384Y-127504255D01*
X146658229Y-127536434D01*
X146536591Y-127574752D01*
X146433243Y-127612691D01*
X146366960Y-127643731D01*
X146356517Y-127661354D01*
X145422628Y-127661354D01*
X145734516Y-127400758D01*
X146098464Y-127170726D01*
X146414553Y-127031884D01*
X146558378Y-126987501D01*
X146698216Y-126958805D01*
X146858994Y-126942714D01*
X147065641Y-126936145D01*
X147194088Y-126935468D01*
X147410712Y-126936738D01*
X147566512Y-126943100D01*
X147684074Y-126958379D01*
X147785978Y-126986400D01*
X147894810Y-127030991D01*
X147973172Y-127067453D01*
X148302587Y-127265368D01*
X148567233Y-127514767D01*
X148765410Y-127812536D01*
X148895415Y-128155562D01*
X148955547Y-128540733D01*
X148953402Y-128860683D01*
X148886789Y-129278232D01*
X148744450Y-129724011D01*
X148528022Y-130195051D01*
X148239140Y-130688385D01*
X147879442Y-131201043D01*
X147450563Y-131730059D01*
X147241626Y-131965852D01*
X146826426Y-132404065D01*
X146432238Y-132779324D01*
X146044434Y-133104090D01*
X145648386Y-133390828D01*
X145337294Y-133588330D01*
X144989715Y-133797231D01*
X144897412Y-134088359D01*
X144743895Y-134456573D01*
X144535527Y-134773618D01*
X144399261Y-134922496D01*
X144248209Y-135068473D01*
X144511625Y-135089326D01*
X144658340Y-135104729D01*
X144740609Y-135126412D01*
X144777393Y-135161590D01*
X144785707Y-135193596D01*
X144776688Y-135292443D01*
X144758328Y-135335721D01*
X144704252Y-135362297D01*
X144569751Y-135401022D01*
X144356856Y-135451433D01*
X144067596Y-135513070D01*
X143704004Y-135585468D01*
X143433869Y-135637118D01*
X142147455Y-135879806D01*
X140666831Y-135873843D01*
X140355894Y-135872271D01*
X139973956Y-135869810D01*
X139533426Y-135866568D01*
X139046714Y-135862652D01*
X138526227Y-135858168D01*
X137984375Y-135853223D01*
X137433566Y-135847924D01*
X136886209Y-135842379D01*
X136354714Y-135836694D01*
X136352175Y-135836666D01*
X135870304Y-135831022D01*
X135410662Y-135824989D01*
X134980422Y-135818700D01*
X134586754Y-135812293D01*
X134236830Y-135805901D01*
X133937820Y-135799661D01*
X133696898Y-135793709D01*
X133521232Y-135788178D01*
X133417995Y-135783205D01*
X133395065Y-135780835D01*
X133179158Y-135710171D01*
X132990001Y-135597192D01*
X132852811Y-135457897D01*
X132830680Y-135422791D01*
X132767314Y-135301421D01*
X132745809Y-135239932D01*
X132766212Y-135242372D01*
X132828567Y-135312790D01*
X132829462Y-135313928D01*
X132861473Y-135356162D01*
X132890385Y-135393379D01*
X132921390Y-135425945D01*
X132959678Y-135454224D01*
X133010442Y-135478581D01*
X133078872Y-135499382D01*
X133170159Y-135516990D01*
X133289495Y-135531772D01*
X133442071Y-135544091D01*
X133633077Y-135554314D01*
X133867705Y-135562804D01*
X134151146Y-135569926D01*
X134488592Y-135576046D01*
X134885233Y-135581529D01*
X135346260Y-135586739D01*
X135876865Y-135592041D01*
X136482239Y-135597800D01*
X136928302Y-135602058D01*
X137482160Y-135607118D01*
X138013479Y-135611426D01*
X138516160Y-135614966D01*
X138984105Y-135617719D01*
X139411218Y-135619667D01*
X139791400Y-135620792D01*
X140118553Y-135621076D01*
X140386581Y-135620500D01*
X140589385Y-135619047D01*
X140720867Y-135616698D01*
X140774685Y-135613500D01*
X140919240Y-135537925D01*
X141007251Y-135409818D01*
X141500985Y-135409818D01*
X141502071Y-135465104D01*
X141512018Y-135505428D01*
X141540855Y-135530951D01*
X141598612Y-135541834D01*
X141695322Y-135538238D01*
X141841014Y-135520323D01*
X142045718Y-135488250D01*
X142319466Y-135442180D01*
X142422773Y-135424595D01*
X142683690Y-135379524D01*
X142938922Y-135334257D01*
X143167556Y-135292587D01*
X143348680Y-135258305D01*
X143432318Y-135241510D01*
X143580350Y-135206752D01*
X143688252Y-135174699D01*
X143746948Y-135149772D01*
X143747360Y-135136390D01*
X143680412Y-135138975D01*
X143628079Y-135146184D01*
X143545493Y-135154739D01*
X143393384Y-135166428D01*
X143185549Y-135180351D01*
X142935782Y-135195613D01*
X142657878Y-135211314D01*
X142491543Y-135220149D01*
X141500985Y-135271524D01*
X141500985Y-135409818D01*
X141007251Y-135409818D01*
X141011342Y-135403863D01*
X141035083Y-135271524D01*
X141042200Y-135231855D01*
X141035837Y-135130782D01*
X141018271Y-134965977D01*
X140991786Y-134756025D01*
X140958665Y-134519512D01*
X140936820Y-134374284D01*
X140905596Y-134169921D01*
X140864579Y-133898036D01*
X140816006Y-133573648D01*
X140762116Y-133211779D01*
X140705146Y-132827449D01*
X140647334Y-132435679D01*
X140602141Y-132128079D01*
X140548489Y-131767347D01*
X140496099Y-131424889D01*
X140446706Y-131111342D01*
X140402048Y-130837346D01*
X140363857Y-130613540D01*
X140333872Y-130450562D01*
X140313826Y-130359052D01*
X140313188Y-130356794D01*
X140281232Y-130213596D01*
X140292795Y-130130561D01*
X140355094Y-130092751D01*
X140444454Y-130085039D01*
X140546204Y-130074401D01*
X140593429Y-130061935D01*
X140624658Y-130056345D01*
X140652998Y-130069854D01*
X140680118Y-130109625D01*
X140707690Y-130182819D01*
X140737384Y-130296599D01*
X140770869Y-130458128D01*
X140809817Y-130674568D01*
X140855897Y-130953080D01*
X140910779Y-131300828D01*
X140966324Y-131660930D01*
X140993296Y-131817924D01*
X141017993Y-131906115D01*
X141046297Y-131939713D01*
X141079734Y-131935013D01*
X141201410Y-131907847D01*
X141356569Y-131909128D01*
X141437076Y-131921968D01*
X141497977Y-131914594D01*
X141559371Y-131854082D01*
X141626251Y-131744267D01*
X141707420Y-131600887D01*
X141753757Y-131529516D01*
X141765430Y-131526445D01*
X141742608Y-131587964D01*
X141685456Y-131710365D01*
X141622106Y-131836125D01*
X141517972Y-132024023D01*
X141401459Y-132212508D01*
X141293246Y-132368657D01*
X141264471Y-132405531D01*
X141169390Y-132536849D01*
X141113965Y-132644058D01*
X141105089Y-132697485D01*
X141136813Y-132852870D01*
X141161626Y-132942555D01*
X141190748Y-132982259D01*
X141235401Y-132987703D01*
X141303381Y-132975274D01*
X141637208Y-132868266D01*
X141948386Y-132684751D01*
X142233232Y-132429454D01*
X142488065Y-132107100D01*
X142709202Y-131722411D01*
X142892960Y-131280113D01*
X143035658Y-130784929D01*
X143045991Y-130739590D01*
X143085478Y-130594745D01*
X143125088Y-130522493D01*
X143162886Y-130510198D01*
X143207721Y-130538618D01*
X143245426Y-130611622D01*
X143278781Y-130739345D01*
X143310568Y-130931919D01*
X143337579Y-131146759D01*
X143357277Y-131587602D01*
X143308455Y-131984373D01*
X143189997Y-132342136D01*
X143004298Y-132661126D01*
X142876816Y-132837110D01*
X143075190Y-132842196D01*
X143273563Y-132847282D01*
X143034859Y-132882264D01*
X142703603Y-132959292D01*
X142436880Y-133086641D01*
X142229172Y-133269348D01*
X142074962Y-133512447D01*
X141968731Y-133820972D01*
X141958572Y-133864293D01*
X141931890Y-134049145D01*
X141954403Y-134192877D01*
X142035222Y-134325069D01*
X142131870Y-134427066D01*
X142357400Y-134591371D01*
X142615492Y-134680677D01*
X142909427Y-134695867D01*
X143063837Y-134677153D01*
X143363564Y-134598259D01*
X143607121Y-134468634D01*
X143810956Y-134278594D01*
X143872063Y-134201304D01*
X143995173Y-134021233D01*
X144082730Y-133853308D01*
X144141344Y-133675516D01*
X144177627Y-133465840D01*
X144198188Y-133202267D01*
X144202621Y-133100460D01*
X144191670Y-132435556D01*
X144110236Y-131727745D01*
X144104507Y-131699443D01*
X145626391Y-131699443D01*
X145673771Y-131708557D01*
X145770319Y-131696555D01*
X145859363Y-131674247D01*
X145983246Y-131632258D01*
X146066543Y-131593467D01*
X146088756Y-131572137D01*
X146053289Y-131557565D01*
X145962467Y-131566190D01*
X145839840Y-131594157D01*
X145723891Y-131631867D01*
X145639367Y-131672713D01*
X145626391Y-131699443D01*
X144104507Y-131699443D01*
X144064219Y-131500425D01*
X146339080Y-131500425D01*
X146374497Y-131508384D01*
X146467227Y-131492121D01*
X146596993Y-131458036D01*
X146743515Y-131412524D01*
X146886515Y-131361984D01*
X147005714Y-131312813D01*
X147080832Y-131271410D01*
X147089819Y-131263579D01*
X147122746Y-131221818D01*
X147110673Y-131220543D01*
X147054256Y-131241685D01*
X146938397Y-131279915D01*
X146783614Y-131328556D01*
X146704023Y-131352882D01*
X146544002Y-131405127D01*
X146419665Y-131452895D01*
X146348847Y-131488976D01*
X146339080Y-131500425D01*
X144064219Y-131500425D01*
X143958540Y-130978383D01*
X143814600Y-130465846D01*
X145296387Y-130465846D01*
X145307228Y-130491553D01*
X145348719Y-130497611D01*
X145434316Y-130482055D01*
X145577475Y-130442925D01*
X145695541Y-130407635D01*
X145860081Y-130352417D01*
X145967507Y-130305407D01*
X146010932Y-130270788D01*
X145983470Y-130252741D01*
X145953284Y-130251099D01*
X145875301Y-130262935D01*
X145754780Y-130293728D01*
X145614497Y-130336032D01*
X145477230Y-130382400D01*
X145365755Y-130425387D01*
X145302850Y-130457547D01*
X145296387Y-130465846D01*
X143814600Y-130465846D01*
X143739370Y-130197970D01*
X146225494Y-130197970D01*
X146260486Y-130201159D01*
X146347403Y-130183916D01*
X146493859Y-130144516D01*
X146707472Y-130081234D01*
X146860427Y-130034364D01*
X147058695Y-129972671D01*
X147189414Y-129929998D01*
X147264868Y-129901190D01*
X147297345Y-129881091D01*
X147299129Y-129864546D01*
X147290353Y-129853954D01*
X147243379Y-129856051D01*
X147135974Y-129879863D01*
X146986522Y-129919782D01*
X146813403Y-129970196D01*
X146635001Y-130025498D01*
X146469698Y-130080077D01*
X146335876Y-130128323D01*
X146251918Y-130164626D01*
X146234811Y-130176074D01*
X146225494Y-130197970D01*
X143739370Y-130197970D01*
X143736802Y-130188827D01*
X143723445Y-130146962D01*
X143598760Y-129802154D01*
X143589702Y-129783357D01*
X147558585Y-129783357D01*
X147584726Y-129798542D01*
X147682892Y-129778857D01*
X147849770Y-129725236D01*
X148082044Y-129638613D01*
X148107016Y-129628848D01*
X148198409Y-129588169D01*
X148217716Y-129568091D01*
X148173566Y-129568158D01*
X148074587Y-129587917D01*
X147929408Y-129626910D01*
X147883504Y-129640647D01*
X147734691Y-129691356D01*
X147620529Y-129740164D01*
X147561837Y-129777927D01*
X147558585Y-129783357D01*
X143589702Y-129783357D01*
X143464357Y-129523229D01*
X143310457Y-129292656D01*
X143301233Y-129282466D01*
X145056255Y-129282466D01*
X145085860Y-129288246D01*
X145174497Y-129271406D01*
X145302822Y-129237889D01*
X145451495Y-129193637D01*
X145601174Y-129144594D01*
X145732517Y-129096701D01*
X145826182Y-129055903D01*
X145857356Y-129036320D01*
X145871380Y-129004723D01*
X145810229Y-129005350D01*
X145675537Y-129037896D01*
X145468940Y-129102055D01*
X145422114Y-129117652D01*
X145263851Y-129175281D01*
X145138951Y-129229142D01*
X145066504Y-129270636D01*
X145056255Y-129282466D01*
X143301233Y-129282466D01*
X143144970Y-129109833D01*
X142912762Y-128884922D01*
X142753040Y-128242196D01*
X142625735Y-127762328D01*
X142497418Y-127349290D01*
X142361738Y-126986668D01*
X142212342Y-126658047D01*
X142042881Y-126347014D01*
X141978737Y-126241016D01*
X141857158Y-126058384D01*
X141749100Y-125936413D01*
X141633991Y-125859632D01*
X141491258Y-125812572D01*
X141381288Y-125791762D01*
X141049561Y-125749127D01*
X140651963Y-125715311D01*
X140205599Y-125690589D01*
X139727576Y-125675236D01*
X139234998Y-125669527D01*
X138744970Y-125673734D01*
X138274600Y-125688134D01*
X137840991Y-125713000D01*
X137622167Y-125731449D01*
X137288782Y-125767305D01*
X136993676Y-125808858D01*
X136703586Y-125861857D01*
X136385250Y-125932049D01*
X136192325Y-125978527D01*
X136065458Y-126012591D01*
X135969664Y-126051688D01*
X135895509Y-126108611D01*
X135833559Y-126196150D01*
X135774380Y-126327095D01*
X135708538Y-126514237D01*
X135640324Y-126726929D01*
X135584216Y-126905713D01*
X135537952Y-127027758D01*
X135485919Y-127100017D01*
X135412502Y-127129444D01*
X135302087Y-127122994D01*
X135139062Y-127087620D01*
X134940951Y-127038399D01*
X134551159Y-126926642D01*
X134233089Y-126801898D01*
X133988538Y-126665934D01*
X133819304Y-126520512D01*
X133727186Y-126367399D01*
X133713980Y-126208360D01*
X133781485Y-126045158D01*
X133845584Y-125963081D01*
X134033329Y-125804745D01*
X134302695Y-125654253D01*
X134652211Y-125512092D01*
X135080408Y-125378745D01*
X135585816Y-125254698D01*
X136166966Y-125140434D01*
X136516913Y-125082161D01*
X136851171Y-125032028D01*
X137160420Y-124991505D01*
X137459610Y-124959653D01*
X137763694Y-124935532D01*
X138087624Y-124918202D01*
X138446353Y-124906726D01*
X138854831Y-124900163D01*
X139328013Y-124897573D01*
X139457307Y-124897437D01*
X140063697Y-124900780D01*
X140603614Y-124911963D01*
X141093721Y-124932018D01*
X141550684Y-124961978D01*
X141991166Y-125002878D01*
X142431832Y-125055750D01*
X142762369Y-125102375D01*
X142968395Y-125132890D01*
X143102998Y-125151437D01*
X143177284Y-125158169D01*
X143202360Y-125153236D01*
X143189332Y-125136790D01*
X143149306Y-125108984D01*
X143147293Y-125107632D01*
X143028825Y-125055649D01*
X142835270Y-125005195D01*
X142574953Y-124957038D01*
X142256199Y-124911947D01*
X141887332Y-124870690D01*
X141476679Y-124834037D01*
X141032562Y-124802755D01*
X140563309Y-124777614D01*
X140077242Y-124759381D01*
X139582689Y-124748827D01*
X139235133Y-124746418D01*
X138728708Y-124752645D01*
X138235299Y-124771313D01*
X137765420Y-124801337D01*
X137329587Y-124841631D01*
X136938315Y-124891110D01*
X136602119Y-124948689D01*
X136331514Y-125013284D01*
X136190383Y-125060642D01*
X136163045Y-125058862D01*
X136167044Y-125014062D01*
X136205377Y-124917090D01*
X136281038Y-124758790D01*
X136304529Y-124711761D01*
X136494957Y-124332596D01*
X136797889Y-124244997D01*
X136961073Y-124197687D01*
X137105288Y-124155662D01*
X137200977Y-124127536D01*
X137205090Y-124126312D01*
X137325001Y-124104287D01*
X137403202Y-124102016D01*
X137476473Y-124076647D01*
X137498859Y-123989929D01*
X137469439Y-123847311D01*
X137453786Y-123803312D01*
X137430986Y-123699311D01*
X137465456Y-123644111D01*
X137563479Y-123633577D01*
X137682701Y-123652545D01*
X137802239Y-123674295D01*
X137870459Y-123668217D01*
X137917008Y-123626551D01*
X137945269Y-123583807D01*
X137998625Y-123500027D01*
X138030560Y-123452917D01*
X138030595Y-123452873D01*
X138063868Y-123470974D01*
X138135075Y-123538500D01*
X138228024Y-123639961D01*
X138323532Y-123740796D01*
X138399497Y-123804590D01*
X138439201Y-123817558D01*
X138444939Y-123766029D01*
X138435645Y-123652180D01*
X138413329Y-123495350D01*
X138394667Y-123389405D01*
X138365185Y-123216675D01*
X138346857Y-123075982D01*
X138341866Y-122986433D01*
X138346170Y-122965214D01*
X138398963Y-122961326D01*
X138478962Y-122987313D01*
X138575587Y-123023401D01*
X138648546Y-123021268D01*
X138713429Y-122970674D01*
X138785827Y-122861380D01*
X138849653Y-122743842D01*
X138924971Y-122607006D01*
X138987860Y-122504563D01*
X139027189Y-122454320D01*
X139032077Y-122452002D01*
X139063727Y-122486387D01*
X139121097Y-122577265D01*
X139192853Y-122706398D01*
X139207060Y-122733529D01*
X139296915Y-122889699D01*
X139370326Y-122982684D01*
X139415599Y-123005828D01*
X139502316Y-122989636D01*
X139592857Y-122969685D01*
X139657614Y-122962247D01*
X139695306Y-122984351D01*
X139706592Y-123047117D01*
X139692133Y-123161667D01*
X139652588Y-123339122D01*
X139622016Y-123461181D01*
X139584435Y-123616400D01*
X139559032Y-123737270D01*
X139549826Y-123803986D01*
X139551058Y-123810773D01*
X139585515Y-123791504D01*
X139661018Y-123726829D01*
X139751291Y-123640477D01*
X139864179Y-123540858D01*
X139963245Y-123475493D01*
X140035011Y-123450155D01*
X140066004Y-123470613D01*
X140058862Y-123508753D01*
X140059793Y-123587463D01*
X140128104Y-123632390D01*
X140253404Y-123639911D01*
X140376243Y-123619376D01*
X140500168Y-123595077D01*
X140588139Y-123587886D01*
X140612808Y-123593487D01*
X140615487Y-123644120D01*
X140594821Y-123745864D01*
X140574113Y-123817152D01*
X140510528Y-124015927D01*
X141028107Y-124045591D01*
X141250470Y-124060461D01*
X141463615Y-124078449D01*
X141642065Y-124097190D01*
X141752729Y-124112886D01*
X141888015Y-124130685D01*
X141953902Y-124120883D01*
X141963944Y-124104076D01*
X141969940Y-123914363D01*
X141961190Y-123676963D01*
X141940239Y-123414924D01*
X141909634Y-123151292D01*
X141871921Y-122909113D01*
X141829648Y-122711433D01*
X141799214Y-122613194D01*
X141705186Y-122475653D01*
X141539865Y-122350446D01*
X141315155Y-122243897D01*
X141042963Y-122162332D01*
X140896223Y-122133461D01*
X140562561Y-122078303D01*
X141104762Y-122094617D01*
G37*
G36*
X160951398Y-129295161D02*
G01*
X160937742Y-129308817D01*
X160924086Y-129295161D01*
X160937742Y-129281505D01*
X160951398Y-129295161D01*
G37*
G36*
X172586237Y-127629139D02*
G01*
X172572581Y-127642795D01*
X172558925Y-127629139D01*
X172572581Y-127615484D01*
X172586237Y-127629139D01*
G37*
G36*
X176027527Y-130032580D02*
G01*
X176013871Y-130046236D01*
X176000215Y-130032580D01*
X176013871Y-130018924D01*
X176027527Y-130032580D01*
G37*
G36*
X180452043Y-128639677D02*
G01*
X180438387Y-128653333D01*
X180424731Y-128639677D01*
X180438387Y-128626021D01*
X180452043Y-128639677D01*
G37*
G36*
X180533979Y-128858172D02*
G01*
X180520323Y-128871828D01*
X180506667Y-128858172D01*
X180520323Y-128844516D01*
X180533979Y-128858172D01*
G37*
G36*
X180615914Y-129076666D02*
G01*
X180602258Y-129090322D01*
X180588602Y-129076666D01*
X180602258Y-129063010D01*
X180615914Y-129076666D01*
G37*
G36*
X180943656Y-129950645D02*
G01*
X180930000Y-129964301D01*
X180916344Y-129950645D01*
X180930000Y-129936989D01*
X180943656Y-129950645D01*
G37*
G36*
X181025591Y-130169139D02*
G01*
X181011936Y-130182795D01*
X180998280Y-130169139D01*
X181011936Y-130155484D01*
X181025591Y-130169139D01*
G37*
G36*
X181107527Y-130387634D02*
G01*
X181093871Y-130401290D01*
X181080215Y-130387634D01*
X181093871Y-130373978D01*
X181107527Y-130387634D01*
G37*
G36*
X184384946Y-131971720D02*
G01*
X184371290Y-131985376D01*
X184357634Y-131971720D01*
X184371290Y-131958064D01*
X184384946Y-131971720D01*
G37*
G36*
X166249893Y-126109393D02*
G01*
X166465582Y-126113810D01*
X166633552Y-126120024D01*
X166760706Y-126129474D01*
X166853947Y-126143602D01*
X166920178Y-126163848D01*
X166966301Y-126191653D01*
X166999221Y-126228457D01*
X167023449Y-126270838D01*
X167046170Y-126341729D01*
X167062704Y-126439047D01*
X167067162Y-126493726D01*
X167073812Y-126641968D01*
X166954148Y-126518842D01*
X166881402Y-126452140D01*
X166804986Y-126402986D01*
X166715142Y-126368884D01*
X166602114Y-126347337D01*
X166456144Y-126335849D01*
X166267476Y-126331925D01*
X166223170Y-126331828D01*
X165865583Y-126331828D01*
X165868618Y-126906920D01*
X165868360Y-127104438D01*
X165865504Y-127269743D01*
X165860277Y-127397133D01*
X165852906Y-127480905D01*
X165844378Y-127514608D01*
X165803135Y-127550103D01*
X165739216Y-127592887D01*
X165732639Y-127596797D01*
X165648176Y-127646390D01*
X165655432Y-126873036D01*
X165662688Y-126099682D01*
X166249893Y-126109393D01*
G37*
G36*
X181028738Y-126745607D02*
G01*
X181058895Y-126816450D01*
X181102900Y-126930829D01*
X181159232Y-127084541D01*
X181226369Y-127273381D01*
X181302789Y-127493144D01*
X181386969Y-127739626D01*
X181450943Y-127929526D01*
X181547044Y-128217110D01*
X181626617Y-128457235D01*
X181690900Y-128654094D01*
X181741130Y-128811882D01*
X181778545Y-128934794D01*
X181804382Y-129027025D01*
X181819879Y-129092768D01*
X181826273Y-129136218D01*
X181824801Y-129161569D01*
X181817634Y-129172469D01*
X181763645Y-129197179D01*
X181728357Y-129181072D01*
X181716827Y-129165430D01*
X181703715Y-129133111D01*
X181675123Y-129054435D01*
X181632932Y-128934838D01*
X181579024Y-128779753D01*
X181515282Y-128594614D01*
X181443588Y-128384857D01*
X181365823Y-128155916D01*
X181309991Y-127990732D01*
X181215799Y-127710564D01*
X181138272Y-127477569D01*
X181076106Y-127287339D01*
X181027995Y-127135464D01*
X180992635Y-127017536D01*
X180968720Y-126929146D01*
X180954946Y-126865883D01*
X180950007Y-126823339D01*
X180952598Y-126797105D01*
X180954938Y-126791168D01*
X180989260Y-126741364D01*
X181013954Y-126722505D01*
X181028738Y-126745607D01*
G37*
G36*
X166590052Y-128176244D02*
G01*
X166786425Y-128180007D01*
X166941020Y-128188402D01*
X167060252Y-128203164D01*
X167150539Y-128226031D01*
X167218296Y-128258740D01*
X167269940Y-128303027D01*
X167311887Y-128360628D01*
X167350554Y-128433281D01*
X167358341Y-128449524D01*
X167381517Y-128515400D01*
X167399530Y-128596400D01*
X167410171Y-128675762D01*
X167411231Y-128736721D01*
X167400499Y-128762516D01*
X167399609Y-128762582D01*
X167377235Y-128743646D01*
X167331598Y-128695009D01*
X167294255Y-128652391D01*
X167154827Y-128527317D01*
X166992896Y-128447597D01*
X166871324Y-128421591D01*
X166803991Y-128416477D01*
X166694550Y-128410401D01*
X166555497Y-128403963D01*
X166399326Y-128397763D01*
X166310491Y-128394666D01*
X165865821Y-128379968D01*
X165868467Y-129064756D01*
X165869135Y-129283304D01*
X165868457Y-129453945D01*
X165865244Y-129583395D01*
X165858307Y-129678370D01*
X165846459Y-129745586D01*
X165828512Y-129791759D01*
X165803276Y-129823605D01*
X165769564Y-129847841D01*
X165726187Y-129871182D01*
X165725744Y-129871411D01*
X165648263Y-129911478D01*
X165655475Y-129043427D01*
X165662688Y-128175376D01*
X166345484Y-128175376D01*
X166590052Y-128176244D01*
G37*
G36*
X168184936Y-125810214D02*
G01*
X168225264Y-125853871D01*
X168339587Y-126019627D01*
X168415657Y-126222392D01*
X168453991Y-126463601D01*
X168455906Y-126492205D01*
X168453817Y-126733069D01*
X168414648Y-126949159D01*
X168334800Y-127158862D01*
X168319172Y-127190744D01*
X168233371Y-127327826D01*
X168118899Y-127464716D01*
X167990919Y-127585693D01*
X167864598Y-127675035D01*
X167838791Y-127688757D01*
X167767906Y-127731689D01*
X167750106Y-127763976D01*
X167754665Y-127771052D01*
X167753917Y-127805377D01*
X167702351Y-127858554D01*
X167686846Y-127870743D01*
X167625696Y-127914922D01*
X167583912Y-127940595D01*
X167576338Y-127943225D01*
X167569112Y-127918084D01*
X167563687Y-127851329D01*
X167560997Y-127755963D01*
X167560860Y-127727326D01*
X167560860Y-127511427D01*
X167676936Y-127441225D01*
X167882585Y-127287168D01*
X168044900Y-127099875D01*
X168164078Y-126879103D01*
X168187510Y-126817644D01*
X168221906Y-126722869D01*
X168251899Y-126645099D01*
X168269544Y-126604282D01*
X168285136Y-126536189D01*
X168287573Y-126429605D01*
X168278788Y-126298536D01*
X168260716Y-126156989D01*
X168235290Y-126018970D01*
X168204444Y-125898486D01*
X168170113Y-125809543D01*
X168156717Y-125787156D01*
X168155950Y-125781459D01*
X168184936Y-125810214D01*
G37*
G36*
X177579456Y-127211298D02*
G01*
X177752245Y-127217104D01*
X177913167Y-127226375D01*
X178050430Y-127238761D01*
X178152241Y-127253918D01*
X178192484Y-127264590D01*
X178284000Y-127310463D01*
X178367723Y-127372901D01*
X178429718Y-127439458D01*
X178456051Y-127497690D01*
X178456179Y-127500074D01*
X178458708Y-127556555D01*
X178463278Y-127638896D01*
X178464755Y-127663281D01*
X178466285Y-127733421D01*
X178461677Y-127773210D01*
X178458280Y-127776783D01*
X178433534Y-127757223D01*
X178383519Y-127709225D01*
X178334452Y-127659134D01*
X178237847Y-127576986D01*
X178121951Y-127516417D01*
X177978547Y-127475164D01*
X177799420Y-127450963D01*
X177576352Y-127441554D01*
X177543333Y-127441298D01*
X177286917Y-127452472D01*
X177040226Y-127490748D01*
X176786447Y-127559667D01*
X176526510Y-127655515D01*
X176435763Y-127690757D01*
X176363723Y-127715686D01*
X176327046Y-127724731D01*
X176327926Y-127704230D01*
X176355299Y-127649462D01*
X176403799Y-127570530D01*
X176428923Y-127532976D01*
X176494254Y-127443001D01*
X176555624Y-127377002D01*
X176624484Y-127328955D01*
X176712290Y-127292833D01*
X176830493Y-127262611D01*
X176990548Y-127232263D01*
X177005482Y-127229653D01*
X177107814Y-127218133D01*
X177245448Y-127211466D01*
X177406593Y-127209303D01*
X177579456Y-127211298D01*
G37*
G36*
X179433557Y-127053500D02*
G01*
X179451863Y-127069247D01*
X179509923Y-127134682D01*
X179570487Y-127223817D01*
X179596530Y-127270506D01*
X179626226Y-127331288D01*
X179651561Y-127391072D01*
X179672881Y-127454582D01*
X179690533Y-127526542D01*
X179704863Y-127611677D01*
X179716218Y-127714712D01*
X179724943Y-127840371D01*
X179731386Y-127993380D01*
X179735893Y-128178461D01*
X179738809Y-128400341D01*
X179740482Y-128663743D01*
X179741257Y-128973392D01*
X179741461Y-129247365D01*
X179741936Y-130729032D01*
X179127419Y-130729032D01*
X178950799Y-130728551D01*
X178794026Y-130727202D01*
X178664808Y-130725129D01*
X178570854Y-130722473D01*
X178519874Y-130719378D01*
X178512903Y-130717671D01*
X178532438Y-130695861D01*
X178582665Y-130651908D01*
X178627736Y-130615252D01*
X178742569Y-130524193D01*
X179139833Y-130510537D01*
X179537097Y-130496881D01*
X179550753Y-129131290D01*
X179553148Y-128856600D01*
X179554774Y-128593196D01*
X179555639Y-128347183D01*
X179555752Y-128124667D01*
X179555121Y-127931756D01*
X179553756Y-127774555D01*
X179551665Y-127659171D01*
X179548857Y-127591711D01*
X179548548Y-127587962D01*
X179531757Y-127465814D01*
X179504189Y-127333168D01*
X179470241Y-127206599D01*
X179434310Y-127102681D01*
X179403711Y-127041935D01*
X179402405Y-127031290D01*
X179433557Y-127053500D01*
G37*
G36*
X173223753Y-125378873D02*
G01*
X173234123Y-125410706D01*
X173255128Y-125490148D01*
X173285514Y-125611753D01*
X173324027Y-125770073D01*
X173369413Y-125959663D01*
X173420417Y-126175076D01*
X173475785Y-126410866D01*
X173534262Y-126661585D01*
X173594595Y-126921789D01*
X173655529Y-127186029D01*
X173715810Y-127448859D01*
X173774184Y-127704834D01*
X173829396Y-127948506D01*
X173880192Y-128174429D01*
X173925318Y-128377156D01*
X173963519Y-128551242D01*
X173993542Y-128691239D01*
X174014131Y-128791701D01*
X174024034Y-128847182D01*
X174024583Y-128856358D01*
X173989475Y-128894803D01*
X173940251Y-128887580D01*
X173890604Y-128837688D01*
X173872792Y-128793896D01*
X173845243Y-128705403D01*
X173810316Y-128580773D01*
X173770371Y-128428572D01*
X173727769Y-128257365D01*
X173708116Y-128175376D01*
X173661340Y-127977894D01*
X173619860Y-127802866D01*
X173581542Y-127641333D01*
X173544258Y-127484337D01*
X173505876Y-127322917D01*
X173464266Y-127148116D01*
X173417295Y-126950972D01*
X173362834Y-126722528D01*
X173298752Y-126453824D01*
X173267212Y-126321593D01*
X173222957Y-126133176D01*
X173183380Y-125959139D01*
X173150206Y-125807524D01*
X173125161Y-125686372D01*
X173109968Y-125603723D01*
X173106070Y-125570517D01*
X173117982Y-125519897D01*
X173146024Y-125459994D01*
X173180198Y-125407091D01*
X173210505Y-125377472D01*
X173223753Y-125378873D01*
G37*
G36*
X178670737Y-130120661D02*
G01*
X178667059Y-130147625D01*
X178658794Y-130163063D01*
X178608566Y-130235996D01*
X178552565Y-130299651D01*
X178501884Y-130343382D01*
X178467616Y-130356541D01*
X178461712Y-130352220D01*
X178430105Y-130350240D01*
X178363873Y-130389394D01*
X178293274Y-130444398D01*
X178060612Y-130604179D01*
X177801011Y-130724397D01*
X177525168Y-130802246D01*
X177243778Y-130834920D01*
X176967534Y-130819613D01*
X176904464Y-130808739D01*
X176762928Y-130767343D01*
X176606560Y-130700300D01*
X176458401Y-130618833D01*
X176342498Y-130535046D01*
X176263781Y-130453313D01*
X176179973Y-130346616D01*
X176104971Y-130234443D01*
X176052675Y-130136281D01*
X176045785Y-130119014D01*
X176051896Y-130109482D01*
X176086287Y-130135322D01*
X176131497Y-130180466D01*
X176193693Y-130241946D01*
X176244020Y-130282471D01*
X176264749Y-130292043D01*
X176304528Y-130310992D01*
X176330161Y-130335666D01*
X176402880Y-130393884D01*
X176516908Y-130451277D01*
X176659005Y-130504204D01*
X176815928Y-130549021D01*
X176974437Y-130582086D01*
X177121290Y-130599757D01*
X177243247Y-130598390D01*
X177270215Y-130594279D01*
X177558396Y-130518847D01*
X177810373Y-130412752D01*
X177980323Y-130308398D01*
X178141194Y-130217953D01*
X178341128Y-130153484D01*
X178468304Y-130128474D01*
X178578993Y-130112471D01*
X178643926Y-130109405D01*
X178670737Y-130120661D01*
G37*
G36*
X178637777Y-128605903D02*
G01*
X178675151Y-128610905D01*
X178676774Y-128612587D01*
X178660720Y-128643841D01*
X178619240Y-128702258D01*
X178577423Y-128755296D01*
X178513295Y-128824848D01*
X178471412Y-128850817D01*
X178458611Y-128845052D01*
X178420883Y-128830363D01*
X178340696Y-128827231D01*
X178228605Y-128834050D01*
X178095167Y-128849214D01*
X177950935Y-128871119D01*
X177806466Y-128898157D01*
X177672314Y-128928723D01*
X177559035Y-128961212D01*
X177477184Y-128994017D01*
X177476265Y-128994496D01*
X177354288Y-129087061D01*
X177267933Y-129212128D01*
X177220107Y-129358454D01*
X177213716Y-129514798D01*
X177251668Y-129669919D01*
X177284306Y-129736884D01*
X177314455Y-129795756D01*
X177315128Y-129825307D01*
X177293136Y-129839303D01*
X177251576Y-129852078D01*
X177213839Y-129849068D01*
X177158923Y-129826383D01*
X177120000Y-129807215D01*
X177024409Y-129759462D01*
X177016686Y-129435363D01*
X177018167Y-129234734D01*
X177036648Y-129078863D01*
X177077046Y-128959236D01*
X177144277Y-128867341D01*
X177243258Y-128794665D01*
X177378904Y-128732695D01*
X177434086Y-128712608D01*
X177542090Y-128678690D01*
X177648156Y-128651277D01*
X177707204Y-128639849D01*
X177788469Y-128631128D01*
X177900420Y-128623104D01*
X178032723Y-128616070D01*
X178175041Y-128610315D01*
X178317041Y-128606130D01*
X178448387Y-128603806D01*
X178558744Y-128603633D01*
X178637777Y-128605903D01*
G37*
G36*
X156957625Y-126100282D02*
G01*
X157140455Y-126101335D01*
X157312894Y-126103345D01*
X157466814Y-126106309D01*
X157594091Y-126110220D01*
X157686599Y-126115073D01*
X157736212Y-126120864D01*
X157737541Y-126121211D01*
X157835464Y-126173007D01*
X157930337Y-126265476D01*
X158013322Y-126384975D01*
X158075579Y-126517862D01*
X158108271Y-126650493D01*
X158111103Y-126697807D01*
X158110968Y-126777013D01*
X158030900Y-126666482D01*
X157960001Y-126581616D01*
X157879312Y-126502772D01*
X157854604Y-126482554D01*
X157787801Y-126436241D01*
X157717663Y-126399657D01*
X157636561Y-126371470D01*
X157536870Y-126350350D01*
X157410959Y-126334966D01*
X157251201Y-126323987D01*
X157049969Y-126316083D01*
X156874316Y-126311530D01*
X156252181Y-126297526D01*
X156254612Y-127070246D01*
X156257044Y-127842967D01*
X156180296Y-127905770D01*
X156124361Y-127947569D01*
X156086360Y-127968901D01*
X156083065Y-127969555D01*
X156078199Y-127943536D01*
X156073746Y-127869202D01*
X156069848Y-127752862D01*
X156066645Y-127600824D01*
X156064280Y-127419397D01*
X156062894Y-127214888D01*
X156062581Y-127055591D01*
X156062778Y-126837114D01*
X156063337Y-126636114D01*
X156064210Y-126459100D01*
X156065351Y-126312578D01*
X156066712Y-126203057D01*
X156068245Y-126137042D01*
X156069409Y-126120161D01*
X156097460Y-126114366D01*
X156171999Y-126109564D01*
X156284902Y-126105751D01*
X156428041Y-126102921D01*
X156593292Y-126101070D01*
X156772529Y-126100192D01*
X156957625Y-126100282D01*
G37*
G36*
X172589915Y-127262359D02*
G01*
X172661797Y-127267459D01*
X172694725Y-127274698D01*
X172695484Y-127276050D01*
X172682809Y-127307800D01*
X172651517Y-127365968D01*
X172611706Y-127433635D01*
X172573475Y-127493882D01*
X172546922Y-127529789D01*
X172541794Y-127533548D01*
X172524066Y-127511567D01*
X172509857Y-127479495D01*
X172498598Y-127492095D01*
X172475199Y-127557904D01*
X172439674Y-127676877D01*
X172392036Y-127848967D01*
X172332296Y-128074129D01*
X172260467Y-128352316D01*
X172176561Y-128683483D01*
X172110473Y-128947506D01*
X172039738Y-129230910D01*
X171971975Y-129501682D01*
X171908506Y-129754592D01*
X171850651Y-129984410D01*
X171799732Y-130185906D01*
X171757069Y-130353850D01*
X171723982Y-130483011D01*
X171701793Y-130568161D01*
X171693301Y-130599301D01*
X171655518Y-130729032D01*
X170919157Y-130729032D01*
X170725010Y-130728665D01*
X170550044Y-130727631D01*
X170401301Y-130726028D01*
X170285822Y-130723955D01*
X170210649Y-130721512D01*
X170182826Y-130718795D01*
X170182796Y-130718702D01*
X170203499Y-130699231D01*
X170257534Y-130658591D01*
X170326183Y-130610432D01*
X170469570Y-130512492D01*
X170953820Y-130508129D01*
X171161300Y-130504456D01*
X171314943Y-130497668D01*
X171414525Y-130487782D01*
X171459821Y-130474812D01*
X171461627Y-130473012D01*
X171471105Y-130443478D01*
X171492419Y-130366727D01*
X171524098Y-130248524D01*
X171564670Y-130094629D01*
X171612661Y-129910805D01*
X171666599Y-129702814D01*
X171725013Y-129476418D01*
X171786430Y-129237378D01*
X171849378Y-128991458D01*
X171912383Y-128744418D01*
X171973975Y-128502021D01*
X172032681Y-128270030D01*
X172087028Y-128054206D01*
X172135544Y-127860310D01*
X172176757Y-127694106D01*
X172209194Y-127561355D01*
X172231384Y-127467820D01*
X172241722Y-127420019D01*
X172258693Y-127341218D01*
X172283758Y-127293816D01*
X172329412Y-127269860D01*
X172408154Y-127261396D01*
X172492486Y-127260430D01*
X172589915Y-127262359D01*
G37*
G36*
X163936971Y-129363441D02*
G01*
X164232325Y-129650215D01*
X164055230Y-129815991D01*
X163750681Y-130068485D01*
X163427254Y-130274729D01*
X163090207Y-130431696D01*
X162849570Y-130510472D01*
X162709169Y-130538866D01*
X162529124Y-130560954D01*
X162324102Y-130576262D01*
X162108771Y-130584312D01*
X161897798Y-130584629D01*
X161705851Y-130576738D01*
X161547597Y-130560161D01*
X161511290Y-130553893D01*
X161155828Y-130460121D01*
X160824233Y-130322423D01*
X160521011Y-130143994D01*
X160250667Y-129928031D01*
X160017707Y-129677730D01*
X159826634Y-129396286D01*
X159793063Y-129335063D01*
X159735206Y-129222257D01*
X159697297Y-129142198D01*
X159680226Y-129098165D01*
X159684882Y-129093439D01*
X159712154Y-129131299D01*
X159758409Y-129207287D01*
X159811395Y-129282351D01*
X159891190Y-129376503D01*
X159989830Y-129482206D01*
X160099350Y-129591922D01*
X160211785Y-129698115D01*
X160319169Y-129793247D01*
X160413538Y-129869780D01*
X160486926Y-129920179D01*
X160529544Y-129936989D01*
X160568303Y-129950420D01*
X160573584Y-129957473D01*
X160604214Y-129982511D01*
X160673709Y-130021591D01*
X160769988Y-130069054D01*
X160880969Y-130119241D01*
X160994570Y-130166493D01*
X161098709Y-130205151D01*
X161111655Y-130209492D01*
X161416830Y-130291285D01*
X161739787Y-130344240D01*
X161934624Y-130360024D01*
X162153490Y-130355105D01*
X162411054Y-130323047D01*
X162699269Y-130264967D01*
X162803365Y-130239350D01*
X162930983Y-130195457D01*
X163085281Y-130125336D01*
X163250591Y-130037261D01*
X163411246Y-129939509D01*
X163535641Y-129852574D01*
X163658951Y-129764676D01*
X163760395Y-129708487D01*
X163857113Y-129677475D01*
X163966243Y-129665106D01*
X164030626Y-129663871D01*
X164110807Y-129660439D01*
X164162917Y-129651622D01*
X164174194Y-129643875D01*
X164156136Y-129618103D01*
X164106569Y-129561113D01*
X164032399Y-129480523D01*
X163940532Y-129383947D01*
X163907905Y-129350273D01*
X163641616Y-129076666D01*
X163936971Y-129363441D01*
G37*
G36*
X170237419Y-125393752D02*
G01*
X170242780Y-125424476D01*
X170258234Y-125504057D01*
X170282844Y-125627854D01*
X170315671Y-125791227D01*
X170355775Y-125989535D01*
X170402219Y-126218137D01*
X170454062Y-126472393D01*
X170510367Y-126747662D01*
X170570195Y-127039302D01*
X170578817Y-127081268D01*
X170639196Y-127376035D01*
X170696168Y-127656040D01*
X170748785Y-127916512D01*
X170796104Y-128152684D01*
X170837179Y-128359785D01*
X170871065Y-128533046D01*
X170896817Y-128667699D01*
X170913489Y-128758973D01*
X170920136Y-128802100D01*
X170920215Y-128803809D01*
X170905092Y-128873806D01*
X170866980Y-128902498D01*
X170816763Y-128884184D01*
X170799538Y-128867027D01*
X170772942Y-128814624D01*
X170740673Y-128716580D01*
X170705195Y-128581265D01*
X170673246Y-128437855D01*
X170645157Y-128303779D01*
X170621042Y-128191204D01*
X170603002Y-128109741D01*
X170593136Y-128068999D01*
X170592030Y-128066129D01*
X170585292Y-128045974D01*
X170573090Y-127981854D01*
X170557615Y-127888602D01*
X170544902Y-127821375D01*
X170525243Y-127729100D01*
X170514966Y-127683763D01*
X170493349Y-127586430D01*
X170467670Y-127464741D01*
X170441119Y-127334562D01*
X170416886Y-127211760D01*
X170398161Y-127112200D01*
X170388656Y-127055591D01*
X170380151Y-127011224D01*
X170375582Y-127000967D01*
X170368767Y-126977317D01*
X170359806Y-126920304D01*
X170359641Y-126919032D01*
X170347841Y-126848941D01*
X170327833Y-126749390D01*
X170307961Y-126659570D01*
X170283560Y-126551188D01*
X170256372Y-126425826D01*
X170230134Y-126301218D01*
X170208582Y-126195099D01*
X170195752Y-126126989D01*
X170185840Y-126088337D01*
X170184866Y-126086021D01*
X170174626Y-126047210D01*
X170159747Y-125963426D01*
X170141298Y-125843029D01*
X170123720Y-125757553D01*
X170101209Y-125689480D01*
X170093973Y-125675465D01*
X170078817Y-125618887D01*
X170098744Y-125544894D01*
X170129962Y-125486810D01*
X170169919Y-125432689D01*
X170207842Y-125394271D01*
X170232960Y-125383294D01*
X170237419Y-125393752D01*
G37*
G36*
X176193515Y-125401795D02*
G01*
X176175721Y-125477087D01*
X176146230Y-125598261D01*
X176105923Y-125761789D01*
X176055682Y-125964141D01*
X175996389Y-126201789D01*
X175928924Y-126471205D01*
X175854170Y-126768859D01*
X175773008Y-127091224D01*
X175686320Y-127434770D01*
X175594987Y-127795969D01*
X175531747Y-128045645D01*
X175437662Y-128416883D01*
X175347437Y-128772942D01*
X175261971Y-129110281D01*
X175182159Y-129425357D01*
X175108898Y-129714629D01*
X175043084Y-129974555D01*
X174985615Y-130201595D01*
X174937387Y-130392205D01*
X174899296Y-130542845D01*
X174872240Y-130649972D01*
X174857115Y-130710046D01*
X174854103Y-130722204D01*
X174827870Y-130724579D01*
X174755655Y-130726429D01*
X174646037Y-130727775D01*
X174507596Y-130728636D01*
X174348914Y-130729034D01*
X174178570Y-130728989D01*
X174005144Y-130728520D01*
X173837217Y-130727649D01*
X173683369Y-130726395D01*
X173552180Y-130724780D01*
X173452231Y-130722822D01*
X173392101Y-130720544D01*
X173378280Y-130718702D01*
X173398982Y-130699231D01*
X173453018Y-130658591D01*
X173521667Y-130610432D01*
X173665054Y-130512492D01*
X174151979Y-130508102D01*
X174326068Y-130506253D01*
X174453378Y-130503674D01*
X174541753Y-130499407D01*
X174599035Y-130492495D01*
X174633070Y-130481978D01*
X174651701Y-130466900D01*
X174662771Y-130446300D01*
X174663032Y-130445673D01*
X174677017Y-130402147D01*
X174701899Y-130314723D01*
X174735216Y-130192464D01*
X174774504Y-130044436D01*
X174817297Y-129879705D01*
X174824358Y-129852196D01*
X174885081Y-129614641D01*
X174955306Y-129338941D01*
X175032968Y-129033271D01*
X175116001Y-128705810D01*
X175202341Y-128364734D01*
X175289923Y-128018220D01*
X175376681Y-127674446D01*
X175460551Y-127341588D01*
X175539468Y-127027825D01*
X175611366Y-126741332D01*
X175674181Y-126490287D01*
X175725848Y-126282867D01*
X175731981Y-126258149D01*
X175895875Y-125597266D01*
X176042465Y-125486590D01*
X176117649Y-125430827D01*
X176173794Y-125391063D01*
X176198730Y-125375914D01*
X176193515Y-125401795D01*
G37*
G36*
X168550415Y-128236773D02*
G01*
X168596903Y-128297373D01*
X168644872Y-128385700D01*
X168668255Y-128441202D01*
X168686752Y-128497183D01*
X168700485Y-128557315D01*
X168710136Y-128630589D01*
X168716386Y-128725998D01*
X168719917Y-128852531D01*
X168721411Y-129019181D01*
X168721613Y-129144946D01*
X168721613Y-129704838D01*
X168628026Y-129866809D01*
X168476410Y-130078118D01*
X168281292Y-130268550D01*
X168052058Y-130430885D01*
X167798096Y-130557902D01*
X167668981Y-130604581D01*
X167576494Y-130632352D01*
X167485065Y-130655722D01*
X167389121Y-130675060D01*
X167283088Y-130690737D01*
X167161392Y-130703123D01*
X167018460Y-130712587D01*
X166848718Y-130719500D01*
X166646594Y-130724230D01*
X166406512Y-130727149D01*
X166122901Y-130728627D01*
X165793927Y-130729032D01*
X165496871Y-130728830D01*
X165250206Y-130728135D01*
X165049703Y-130726818D01*
X164891130Y-130724745D01*
X164770257Y-130721786D01*
X164682852Y-130717809D01*
X164624687Y-130712682D01*
X164591528Y-130706275D01*
X164579147Y-130698456D01*
X164581142Y-130691352D01*
X164622404Y-130653075D01*
X164688363Y-130602276D01*
X164714218Y-130584113D01*
X164816022Y-130514554D01*
X165922151Y-130504062D01*
X166199728Y-130501287D01*
X166428904Y-130498500D01*
X166615899Y-130495366D01*
X166766932Y-130491548D01*
X166888226Y-130486711D01*
X166986000Y-130480519D01*
X167066475Y-130472636D01*
X167135872Y-130462725D01*
X167200412Y-130450451D01*
X167266314Y-130435478D01*
X167287742Y-130430297D01*
X167499453Y-130370357D01*
X167679756Y-130298217D01*
X167851840Y-130203368D01*
X167984575Y-130114473D01*
X168204633Y-129931676D01*
X168372750Y-129732057D01*
X168464602Y-129571608D01*
X168492063Y-129511407D01*
X168512450Y-129458589D01*
X168526919Y-129403653D01*
X168536624Y-129337094D01*
X168542720Y-129249409D01*
X168546359Y-129131096D01*
X168548698Y-128972652D01*
X168549793Y-128870251D01*
X168550587Y-128656474D01*
X168547861Y-128492340D01*
X168541383Y-128372963D01*
X168530921Y-128293462D01*
X168520600Y-128257721D01*
X168485934Y-128176195D01*
X168550415Y-128236773D01*
G37*
G36*
X158822607Y-125881396D02*
G01*
X158865919Y-125916305D01*
X158925595Y-125986060D01*
X158991872Y-126077539D01*
X159054986Y-126177620D01*
X159088572Y-126238872D01*
X159159028Y-126416827D01*
X159211640Y-126635024D01*
X159243575Y-126881186D01*
X159246649Y-126923469D01*
X159242552Y-127231640D01*
X159191195Y-127521475D01*
X159095397Y-127788793D01*
X158957978Y-128029413D01*
X158781756Y-128239156D01*
X158569552Y-128413839D01*
X158324184Y-128549283D01*
X158096381Y-128629170D01*
X158027323Y-128646422D01*
X157957382Y-128660240D01*
X157879003Y-128671150D01*
X157784633Y-128679680D01*
X157666717Y-128686357D01*
X157517701Y-128691707D01*
X157330030Y-128696257D01*
X157096149Y-128700535D01*
X157066290Y-128701028D01*
X156253763Y-128714332D01*
X156253763Y-129721682D01*
X156253763Y-130729032D01*
X155734839Y-130729032D01*
X155573246Y-130728465D01*
X155432179Y-130726885D01*
X155320029Y-130724477D01*
X155245182Y-130721424D01*
X155216028Y-130717910D01*
X155215914Y-130717671D01*
X155235447Y-130695858D01*
X155285667Y-130651900D01*
X155330716Y-130615252D01*
X155383638Y-130575210D01*
X155430792Y-130548429D01*
X155485509Y-130531557D01*
X155561121Y-130521243D01*
X155670959Y-130514134D01*
X155747221Y-130510537D01*
X156048925Y-130496881D01*
X156054760Y-129503269D01*
X156056327Y-129275961D01*
X156058220Y-129066464D01*
X156060347Y-128880912D01*
X156062620Y-128725439D01*
X156064949Y-128606179D01*
X156067243Y-128529267D01*
X156069414Y-128500836D01*
X156069417Y-128500834D01*
X156098051Y-128498114D01*
X156173535Y-128495303D01*
X156288093Y-128492569D01*
X156433951Y-128490080D01*
X156603337Y-128488005D01*
X156705410Y-128487087D01*
X157042583Y-128481591D01*
X157331512Y-128469716D01*
X157578370Y-128449818D01*
X157789329Y-128420256D01*
X157970563Y-128379386D01*
X158128246Y-128325566D01*
X158268550Y-128257153D01*
X158397649Y-128172505D01*
X158521715Y-128069979D01*
X158617102Y-127978423D01*
X158786828Y-127769536D01*
X158918283Y-127528278D01*
X159009053Y-127263486D01*
X159056726Y-126983997D01*
X159058885Y-126698648D01*
X159027275Y-126477000D01*
X158988349Y-126316434D01*
X158943352Y-126166811D01*
X158896521Y-126040130D01*
X158852092Y-125948391D01*
X158829212Y-125916051D01*
X158802682Y-125881591D01*
X158816316Y-125878968D01*
X158822607Y-125881396D01*
G37*
G36*
X183935814Y-126720258D02*
G01*
X183928319Y-126747058D01*
X183903122Y-126821519D01*
X183861514Y-126940084D01*
X183804781Y-127099197D01*
X183734213Y-127295301D01*
X183651098Y-127524841D01*
X183556725Y-127784259D01*
X183452383Y-128070001D01*
X183339359Y-128378509D01*
X183218943Y-128706228D01*
X183092424Y-129049600D01*
X183057289Y-129144792D01*
X182929017Y-129492403D01*
X182806175Y-129825715D01*
X182690080Y-130141127D01*
X182582051Y-130435039D01*
X182483406Y-130703850D01*
X182395463Y-130943961D01*
X182319540Y-131151772D01*
X182256956Y-131323681D01*
X182209029Y-131456089D01*
X182177077Y-131545395D01*
X182162419Y-131588000D01*
X182161605Y-131590973D01*
X182141031Y-131641228D01*
X182127038Y-131661707D01*
X182096496Y-131713317D01*
X182076555Y-131770100D01*
X182072854Y-131811986D01*
X182082084Y-131821722D01*
X182113573Y-131824010D01*
X182193195Y-131830421D01*
X182314658Y-131840431D01*
X182471670Y-131853516D01*
X182657937Y-131869151D01*
X182867168Y-131886812D01*
X183073979Y-131904352D01*
X183305128Y-131923777D01*
X183524666Y-131941805D01*
X183725239Y-131957863D01*
X183899495Y-131971380D01*
X184040081Y-131981784D01*
X184139645Y-131988501D01*
X184185587Y-131990860D01*
X184264996Y-131997639D01*
X184308061Y-132010771D01*
X184311558Y-132020953D01*
X184297924Y-132028792D01*
X184265752Y-132033604D01*
X184210945Y-132035154D01*
X184129402Y-132033208D01*
X184017027Y-132027533D01*
X183869719Y-132017894D01*
X183683379Y-132004059D01*
X183453910Y-131985793D01*
X183177212Y-131962862D01*
X182937419Y-131942563D01*
X182734475Y-131925434D01*
X182547318Y-131909942D01*
X182383429Y-131896684D01*
X182250288Y-131886253D01*
X182155377Y-131879245D01*
X182106175Y-131876255D01*
X182102976Y-131876189D01*
X182064001Y-131889541D01*
X182030121Y-131936615D01*
X181996511Y-132019516D01*
X181963707Y-132105660D01*
X181933628Y-132172815D01*
X181919492Y-132197043D01*
X181895583Y-132208708D01*
X181841012Y-132217644D01*
X181750844Y-132224105D01*
X181620144Y-132228343D01*
X181443977Y-132230612D01*
X181254398Y-132231182D01*
X181074200Y-132230638D01*
X180913703Y-132229109D01*
X180780469Y-132226754D01*
X180682062Y-132223732D01*
X180626042Y-132220199D01*
X180615914Y-132217831D01*
X180638611Y-132200504D01*
X180699354Y-132165391D01*
X180787120Y-132118710D01*
X180833802Y-132094928D01*
X181051691Y-131985376D01*
X181391468Y-131985376D01*
X181731245Y-131985376D01*
X181790664Y-131806824D01*
X181825310Y-131710986D01*
X181852929Y-131658897D01*
X181879641Y-131641286D01*
X181898421Y-131643613D01*
X181924705Y-131645207D01*
X181941581Y-131622546D01*
X181952937Y-131565212D01*
X181961770Y-131473940D01*
X181967059Y-131433368D01*
X181977877Y-131381131D01*
X181995373Y-131313925D01*
X182020694Y-131228443D01*
X182054989Y-131121380D01*
X182099407Y-130989431D01*
X182155096Y-130829290D01*
X182223205Y-130637652D01*
X182304883Y-130411212D01*
X182401277Y-130146664D01*
X182513536Y-129840703D01*
X182642809Y-129490023D01*
X182780503Y-129117634D01*
X183584226Y-126946344D01*
X183753924Y-126827205D01*
X183836198Y-126771962D01*
X183900035Y-126733813D01*
X183933740Y-126719634D01*
X183935814Y-126720258D01*
G37*
G36*
X176421903Y-131409928D02*
G01*
X177492618Y-131451881D01*
X178007634Y-131480809D01*
X178175501Y-131491746D01*
X178371908Y-131505390D01*
X178590616Y-131521238D01*
X178825382Y-131538784D01*
X179069967Y-131557523D01*
X179318129Y-131576950D01*
X179563628Y-131596560D01*
X179800224Y-131615848D01*
X180021675Y-131634309D01*
X180221741Y-131651437D01*
X180394180Y-131666728D01*
X180532753Y-131679677D01*
X180631218Y-131689777D01*
X180683335Y-131696525D01*
X180689025Y-131697829D01*
X180731368Y-131689016D01*
X180753571Y-131669967D01*
X180791848Y-131640815D01*
X180812057Y-131653357D01*
X180806637Y-131695684D01*
X180789996Y-131727338D01*
X180755765Y-131767796D01*
X180722206Y-131792697D01*
X180702582Y-131795360D01*
X180710157Y-131769102D01*
X180711505Y-131766881D01*
X180711010Y-131741641D01*
X180702382Y-131739570D01*
X180670006Y-131737357D01*
X180589538Y-131731064D01*
X180467317Y-131721209D01*
X180309681Y-131708310D01*
X180122967Y-131692886D01*
X179913515Y-131675455D01*
X179710717Y-131658473D01*
X179159910Y-131613254D01*
X178654476Y-131574194D01*
X178185549Y-131540955D01*
X177744267Y-131513202D01*
X177321765Y-131490597D01*
X176909179Y-131472803D01*
X176497646Y-131459485D01*
X176078301Y-131450305D01*
X175642280Y-131444926D01*
X175180720Y-131443011D01*
X174684756Y-131444225D01*
X174170323Y-131447999D01*
X173865267Y-131451003D01*
X173574751Y-131454229D01*
X173303659Y-131457600D01*
X173056872Y-131461038D01*
X172839271Y-131464465D01*
X172655738Y-131467803D01*
X172511156Y-131470974D01*
X172410406Y-131473900D01*
X172358370Y-131476503D01*
X172354086Y-131477002D01*
X172300976Y-131482064D01*
X172203698Y-131488152D01*
X172072683Y-131494738D01*
X171918365Y-131501292D01*
X171766882Y-131506770D01*
X171609378Y-131512762D01*
X171409257Y-131521570D01*
X171178417Y-131532602D01*
X170928758Y-131545265D01*
X170672180Y-131558967D01*
X170420582Y-131573117D01*
X170346667Y-131577431D01*
X168930387Y-131671391D01*
X167505235Y-131787144D01*
X166066898Y-131925258D01*
X164611061Y-132086300D01*
X163133409Y-132270840D01*
X161629629Y-132479444D01*
X160095406Y-132712680D01*
X158526426Y-132971117D01*
X156918375Y-133255321D01*
X155325161Y-133554611D01*
X155145105Y-133589226D01*
X154983421Y-133620031D01*
X154847653Y-133645612D01*
X154745349Y-133664552D01*
X154684053Y-133675438D01*
X154669677Y-133677521D01*
X154680258Y-133665974D01*
X154724301Y-133640008D01*
X154774891Y-133622757D01*
X154875545Y-133597425D01*
X155022413Y-133564699D01*
X155211644Y-133525264D01*
X155439387Y-133479809D01*
X155701791Y-133429018D01*
X155995006Y-133373580D01*
X156315180Y-133314180D01*
X156658463Y-133251506D01*
X157021004Y-133186244D01*
X157398953Y-133119081D01*
X157788457Y-133050703D01*
X158185667Y-132981797D01*
X158586732Y-132913050D01*
X158987801Y-132845149D01*
X159385023Y-132778779D01*
X159774547Y-132714629D01*
X160152522Y-132653384D01*
X160515098Y-132595731D01*
X160858424Y-132542357D01*
X161006022Y-132519856D01*
X162398438Y-132318077D01*
X163782363Y-132135489D01*
X165154466Y-131972297D01*
X166511417Y-131828703D01*
X167849885Y-131704912D01*
X169166541Y-131601126D01*
X170458053Y-131517549D01*
X171721092Y-131454385D01*
X172952326Y-131411838D01*
X174148426Y-131390110D01*
X175306062Y-131389405D01*
X176421903Y-131409928D01*
G37*
G36*
X162182422Y-126119417D02*
G01*
X162234580Y-126121707D01*
X162374223Y-126134266D01*
X162513820Y-126153996D01*
X162641628Y-126178441D01*
X162745906Y-126205147D01*
X162814910Y-126231657D01*
X162835047Y-126247249D01*
X162868120Y-126269985D01*
X162932194Y-126298757D01*
X162951989Y-126306153D01*
X163016655Y-126334224D01*
X163052105Y-126359203D01*
X163054409Y-126364626D01*
X163076290Y-126384594D01*
X163091034Y-126386451D01*
X163127301Y-126404108D01*
X163190053Y-126450843D01*
X163266959Y-126517299D01*
X163282564Y-126531768D01*
X163356752Y-126598819D01*
X163414685Y-126646417D01*
X163446109Y-126666270D01*
X163448564Y-126665988D01*
X163467682Y-126678309D01*
X163493499Y-126718118D01*
X163541439Y-126797047D01*
X163575475Y-126824563D01*
X163599117Y-126801025D01*
X163615318Y-126730588D01*
X163651248Y-126609132D01*
X163720323Y-126524316D01*
X163828010Y-126471758D01*
X163967852Y-126447967D01*
X164062082Y-126436991D01*
X164132913Y-126422378D01*
X164164135Y-126407943D01*
X164158439Y-126372622D01*
X164123969Y-126318932D01*
X164115863Y-126309322D01*
X164095570Y-126282987D01*
X164112198Y-126293340D01*
X164153826Y-126330219D01*
X164255844Y-126424202D01*
X164194535Y-126490047D01*
X164151464Y-126533319D01*
X164077976Y-126604090D01*
X163983940Y-126692967D01*
X163879220Y-126790558D01*
X163866771Y-126802069D01*
X163600317Y-127048246D01*
X163475008Y-126942671D01*
X163288128Y-126791135D01*
X163124196Y-126672882D01*
X162970170Y-126580103D01*
X162813008Y-126504992D01*
X162639666Y-126439740D01*
X162628717Y-126436052D01*
X162539910Y-126409003D01*
X162455104Y-126390847D01*
X162359827Y-126379961D01*
X162239607Y-126374723D01*
X162079972Y-126373509D01*
X162071183Y-126373524D01*
X161910238Y-126375181D01*
X161789856Y-126380512D01*
X161696014Y-126391154D01*
X161614689Y-126408748D01*
X161531859Y-126434933D01*
X161524946Y-126437377D01*
X161253404Y-126561175D01*
X161010353Y-126727009D01*
X160801148Y-126929494D01*
X160631142Y-127163248D01*
X160505689Y-127422887D01*
X160484375Y-127483634D01*
X160438904Y-127679178D01*
X160416551Y-127904647D01*
X160417361Y-128140457D01*
X160441376Y-128367021D01*
X160482013Y-128544086D01*
X160539742Y-128699406D01*
X160616128Y-128860556D01*
X160701234Y-129008753D01*
X160785123Y-129125219D01*
X160796283Y-129138010D01*
X160830963Y-129185058D01*
X160837739Y-129213072D01*
X160837539Y-129213285D01*
X160811600Y-129206024D01*
X160774023Y-129172425D01*
X160729975Y-129131715D01*
X160702766Y-129117634D01*
X160657176Y-129094993D01*
X160593941Y-129033850D01*
X160520209Y-128944371D01*
X160443132Y-128836725D01*
X160369862Y-128721080D01*
X160307548Y-128607602D01*
X160263342Y-128506461D01*
X160254918Y-128480846D01*
X160235344Y-128379674D01*
X160221967Y-128238172D01*
X160214774Y-128070280D01*
X160213751Y-127889935D01*
X160218886Y-127711078D01*
X160230164Y-127547648D01*
X160247573Y-127413584D01*
X160255969Y-127372493D01*
X160341544Y-127122151D01*
X160476318Y-126879473D01*
X160654891Y-126653840D01*
X160691768Y-126615253D01*
X160803818Y-126508051D01*
X160908411Y-126426275D01*
X161026960Y-126354788D01*
X161142581Y-126296583D01*
X161278315Y-126234785D01*
X161390592Y-126193492D01*
X161503069Y-126165888D01*
X161639400Y-126145152D01*
X161688343Y-126139268D01*
X161846230Y-126125955D01*
X162020804Y-126119020D01*
X162182422Y-126119417D01*
G37*
D12*
%TO.C,J1*%
X123816400Y-127863600D02*
X116556400Y-127863600D01*
X123816400Y-127863600D02*
X123816400Y-129363600D01*
X123816400Y-135863600D02*
X123816400Y-137363600D01*
X123816400Y-137363600D02*
X116556400Y-137363600D01*
%TO.C,J3*%
X179706400Y-110923600D02*
X179706400Y-110008093D01*
X180056400Y-112923600D02*
X180056400Y-110923600D01*
X180476400Y-110923600D02*
X180476400Y-112923600D01*
X180476400Y-112923600D02*
X180056400Y-112923600D01*
X180766400Y-110081815D02*
X180766400Y-110923600D01*
X181056400Y-112923600D02*
X181056400Y-110923600D01*
X181476400Y-110923600D02*
X181476400Y-112923600D01*
X181476400Y-112923600D02*
X181056400Y-112923600D01*
X181766400Y-110298600D02*
X181766400Y-110923600D01*
X182056400Y-112923600D02*
X182056400Y-110923600D01*
X182176400Y-110923600D02*
X182176400Y-112923600D01*
X182266400Y-108928600D02*
X182951400Y-108928600D01*
X182296400Y-110923600D02*
X182296400Y-112923600D01*
X182416400Y-110923600D02*
X182416400Y-112923600D01*
X182476400Y-110923600D02*
X182476400Y-112923600D01*
X182476400Y-112923600D02*
X182056400Y-112923600D01*
X182826400Y-110298600D02*
X182826400Y-110923600D01*
X182826400Y-110923600D02*
X179706400Y-110923600D01*
X182951400Y-108928600D02*
X182951400Y-109613600D01*
%TO.C,J2*%
X186206400Y-111048600D02*
X186206400Y-110133093D01*
X186556400Y-113048600D02*
X186556400Y-111048600D01*
X186976400Y-111048600D02*
X186976400Y-113048600D01*
X186976400Y-113048600D02*
X186556400Y-113048600D01*
X187266400Y-110423600D02*
X187266400Y-111048600D01*
X187556400Y-113048600D02*
X187556400Y-111048600D01*
X187676400Y-111048600D02*
X187676400Y-113048600D01*
X187766400Y-109053600D02*
X188451400Y-109053600D01*
X187796400Y-111048600D02*
X187796400Y-113048600D01*
X187916400Y-111048600D02*
X187916400Y-113048600D01*
X187976400Y-111048600D02*
X187976400Y-113048600D01*
X187976400Y-113048600D02*
X187556400Y-113048600D01*
X188326400Y-110423600D02*
X188326400Y-111048600D01*
X188326400Y-111048600D02*
X186206400Y-111048600D01*
X188451400Y-109053600D02*
X188451400Y-109738600D01*
%TD*%
M02*
