M48
; DRILL file {KiCad 8.0.6-8.0.6-0~ubuntu22.04.1} date 2024-12-08T13:20:54-0500
; FORMAT={-:-/ absolute / inch / decimal}
; #@! TF.CreationDate,2024-12-08T13:20:54-05:00
; #@! TF.GenerationSoftware,Kicad,Pcbnew,8.0.6-8.0.6-0~ubuntu22.04.1
; #@! TF.FileFunction,Plated,1,2,PTH
FMAT,2
INCH
; #@! TA.AperFunction,Plated,PTH,ViaDrill
T1C0.0118
; #@! TA.AperFunction,Plated,PTH,ComponentDrill
T2C0.0197
%
G90
G05
T1
X4.6811Y-5.2717
X4.7244Y-5.185
X4.7328Y-5.221
X4.9094Y-5.2953
X4.945Y-4.733
X4.9722Y-4.0254
X4.9843Y-5.2283
X4.9966Y-4.4982
X5.0302Y-5.1596
X5.0394Y-5.311
X5.0624Y-4.5238
X5.2293Y-4.5805
X5.283Y-4.733
X5.5657Y-5.1519
X5.689Y-5.4921
X5.7705Y-5.2814
X5.8636Y-5.2708
X5.9391Y-5.3937
X5.9449Y-5.5906
X6.049Y-5.2883
X6.0923Y-4.7438
X6.2293Y-5.0465
X6.2434Y-5.3937
X6.2997Y-5.2992
X6.3317Y-4.7438
X6.3491Y-4.6766
X6.3615Y-4.5712
X6.3976Y-5.2953
X6.3976Y-5.3543
X6.4196Y-5.0815
X6.427Y-4.7043
X6.4897Y-5.2692
X6.4949Y-5.3086
X6.5426Y-5.3672
X6.5579Y-5.4623
X6.5589Y-5.2007
X6.5953Y-4.5712
X6.5953Y-4.6057
X6.6308Y-5.486
X6.6387Y-4.7515
X6.64Y-4.5047
X6.7001Y-4.5208
X6.7114Y-5.1421
X6.8046Y-5.2962
X6.8148Y-5.0973
X6.8411Y-5.1174
X6.8572Y-4.7228
X7.2441Y-4.685
X7.3693Y-5.0285
X7.3785Y-5.5297
T2
X6.8983Y-4.3155
X6.9377Y-4.3155
X6.977Y-4.3155
X7.0971Y-4.3155
X7.1365Y-4.3155
X7.1758Y-4.3155
X7.353Y-4.3204
X7.3924Y-4.3204
T2
G00X4.5632Y-5.0442
M15
G01X4.5396Y-5.0442
M16
G05
G00X4.5632Y-5.3978
M15
G01X4.5396Y-5.3978
M16
G05
G00X4.7975Y-5.0584
M15
G01X4.7739Y-5.0584
M16
G05
G00X4.7975Y-5.3836
M15
G01X4.7739Y-5.3836
M16
G05
M30
